<?xml version="1.0" encoding="UTF-8"?>
<svg width="20px" height="20px" viewBox="0 0 20 20" version="1.1" xmlns="http://www.w3.org/2000/svg" xmlns:xlink="http://www.w3.org/1999/xlink">
    <!-- Generator: Sketch 59.1 (86144) - https://sketch.com -->
    <title>Group 34</title>
    <desc>Created with Sketch.</desc>
    <g id="Page-1" stroke="none" stroke-width="1" fill="none" fill-rule="evenodd">
        <g id="RegistryLP" transform="translate(-69.000000, -341.000000)">
            <g id="0801_CardInsert" transform="translate(0.000000, 110.000000)">
                <g id="Group-21" transform="translate(70.000000, 232.000000)">
                    <g id="Group-34">
                        <circle id="Oval-Copy" stroke="#003B58" opacity="0.5" cx="9" cy="9" r="9"></circle>
                        <path d="M13.8278187,5.10986547 C13.6829816,4.96337818 13.4432513,4.96337818 13.2984143,5.10986547 L7.70570608,10.6773792 C7.55987015,10.8258595 7.32113872,10.8258595 7.17530278,10.6773792 L4.72505931,8.18111609 C4.65314022,8.1083707 4.5572481,8.07149975 4.46235485,8.07149975 C4.36546385,8.07050324 4.26757398,8.10637768 4.19365714,8.18111609 L3.11187414,9.15570503 C3.03895617,9.22944694 3,9.32212257 3,9.41878426 C3,9.51544594 3.03895617,9.6180867 3.11187414,9.69083209 L7.17530278,13.8901345 C7.32113872,14.0366218 7.55987015,14.0366218 7.70570608,13.8901345 L14.890623,6.71624315 C15.036459,6.56975585 15.036459,6.32760339 14.890623,6.18111609 L13.8278187,5.10986547 Z" id="Fill-1" fill="#01B4C0"></path>
                    </g>
                </g>
            </g>
        </g>
    </g>
</svg>