<?xml version="1.0" encoding="utf-8"?>
<!-- Generator: Adobe Illustrator 22.1.0, SVG Export Plug-In . SVG Version: 6.00 Build 0)  -->
<svg version="1.1" id="Capa_1" xmlns="http://www.w3.org/2000/svg" xmlns:xlink="http://www.w3.org/1999/xlink" x="0px" y="0px"
	 viewBox="0 0 25 24" style="enable-background:new 0 0 25 24;" xml:space="preserve">
<style type="text/css">
	.st0{fill:none;}
	.st1{filter:url(#Adobe_OpacityMaskFilter);}
	.st2{fill:#FFFFFF;}
	.st3{mask:url(#yp47k9ibhb_1_);}
</style>
<g>
	<g>
		<g>
			<g>
				<g>
					<path class="st0" d="M25,0v24H1V0"/>
					<g>
						<g transform="translate(-94 -219) translate(0 66) translate(10 147) translate(84 6) translate(4 1) translate(0 2)">
							<defs>
								<filter id="Adobe_OpacityMaskFilter" filterUnits="userSpaceOnUse" x="0" y="0" width="18" height="13">
									<feColorMatrix  type="matrix" values="1 0 0 0 0  0 1 0 0 0  0 0 1 0 0  0 0 0 1 0"/>
								</filter>
							</defs>
							<mask maskUnits="userSpaceOnUse" x="0" y="0" width="18" height="13" id="yp47k9ibhb_1_">
								<g class="st1">
									<path id="yqn3cz0eka_1_" class="st2" d="M0,0h18v13H0V0z"/>
								</g>
							</mask>
							<path class="st3" d="M6.4,13c-0.3,0-0.5-0.2-0.6-0.4l-3-11.4H0.6C0.3,1.2,0,0.9,0,0.6C0,0.3,0.3,0,0.6,0h2.7
								c0.3,0,0.5,0.2,0.6,0.4l3,11.4l7.6,0l2-6.9h-1.1c-0.4,0-0.6-0.3-0.6-0.6c0-0.3,0.3-0.6,0.6-0.6h2.1c0.2,0,0.4,0.1,0.5,0.3
								C18,4.1,18,4.3,18,4.5l-2.5,8.2c-0.1,0.2-0.3,0.3-0.5,0.3H6.4z"/>
						</g>
						<path d="M18.2,18c-0.8,0-1.5,0.7-1.5,1.5c0,0.8,0.7,1.5,1.5,1.5c0.8,0,1.5-0.7,1.5-1.5C19.7,18.7,19.1,18,18.2,18 M11.5,18
							c-0.8,0-1.5,0.7-1.5,1.5c0,0.8,0.7,1.5,1.5,1.5c0.8,0,1.5-0.7,1.5-1.5C13,18.7,12.3,18,11.5,18"/>
					</g>
				</g>
			</g>
		</g>
	</g>
</g>
</svg>
