<svg xmlns="http://www.w3.org/2000/svg" xmlns:xlink="http://www.w3.org/1999/xlink" viewBox="0 0 25 24">
    <defs>
        <path id="yqn3cz0eka" d="M0 0L17.987 0 17.987 13.035 0 13.035z"/>
    </defs>
    <g fill="none" fill-rule="evenodd">
        <g>
            <g>
                <g>
                    <g>
                        <path d="M1 0H25V24H1z" transform="translate(-94 -219) translate(0 66) translate(10 147) translate(84 6)"/>
                        <g>
                            <g transform="translate(-94 -219) translate(0 66) translate(10 147) translate(84 6) translate(4 1) translate(0 2)">
                                <mask id="yp47k9ibhb" fill="#fff">
                                    <use xlink:href="#yqn3cz0eka"/>
                                </mask>
                                <path fill="#000" d="M6.402 13.035c-.269 0-.505-.179-.574-.434L2.812 1.187H.593C.266 1.187 0 .921 0 .594 0 .266.266 0 .593 0h2.654c.269 0 .505.179.574.434l3.017 11.385 7.641-.001 1.988-6.942h-1.08c-.366 0-.642-.276-.642-.614 0-.328.266-.594.594-.594h2.07c.201 0 .385.1.493.267.089.137.113.333.05.566l-2.519 8.19c-.095.211-.303.344-.539.344H6.402z" mask="url(#yp47k9ibhb)"/>
                            </g>
                            <path fill="#000" d="M14.248 17c-.828 0-1.5.672-1.5 1.5 0 .829.672 1.5 1.5 1.5.83 0 1.5-.671 1.5-1.5 0-.828-.67-1.5-1.5-1.5M7.506 17c-.828 0-1.5.672-1.5 1.5 0 .829.672 1.5 1.5 1.5.829 0 1.5-.671 1.5-1.5 0-.828-.671-1.5-1.5-1.5M10.904 3.45h2.708c.408 0 .742.266.742.592 0 .325-.334.591-.742.591h-2.708v2.708c0 .409-.266.742-.591.742-.326 0-.592-.333-.592-.742V4.633H7.013c-.409 0-.742-.266-.742-.591 0-.326.333-.592.742-.592h2.708V.742c0-.407.266-.742.592-.742.325 0 .591.335.591.742V3.45z" transform="translate(-94 -219) translate(0 66) translate(10 147) translate(84 6) translate(4 1)"/>
                        </g>
                    </g>
                </g>
            </g>
        </g>
    </g>
</svg>
