<svg viewBox="0 0 110 100" xmlns="http://www.w3.org/2000/svg" xmlns:xlink="http://www.w3.org/1999/xlink"><mask id="a" fill="#fff"><path d="m.534.633h102.068v13.367h-102.068z" fill="#fff" fill-rule="evenodd"/></mask><mask id="b" fill="#fff"><path d="m.307 0h24.801v16.012h-24.801z" fill="#fff" fill-rule="evenodd"/></mask><g fill="none" fill-rule="evenodd"><path d="m102.602 7.317c0 3.69-22.849 6.683-51.033 6.683-28.186 0-51.035-2.993-51.035-6.683s22.85-6.684 51.036-6.684c28.184 0 51.033 2.993 51.033 6.684" fill="#edeced" mask="url(#a)" transform="translate(7 86)"/><path d="m98.626 48.192.161-1.484-49.32-3.204-6.468-26.347-.869-.089-.586.096 6.719 27.71z" fill="#aeaeaf"/><path d="m99.932 22.966.151-1.485-58-5.918-22.426 3.799.242 1.472 22.23-3.766zm-73.615 33.761c.119 0 .24-.028.353-.09l22.244-11.987c.362-.195.498-.65.302-1.011-.195-.363-.646-.498-1.01-.303l-22.244 11.988c-.363.196-.5.647-.303 1.01.135.25.392.392.658.392" fill="#aeaeaf"/><path d="m75.126 85.848c0 3.272 2.653 5.925 5.927 5.925 3.272 0 5.925-2.653 5.925-5.925 0-3.274-2.653-5.928-5.924-5.928-3.275 0-5.928 2.654-5.928 5.928" fill="#333"/><path d="m78.868 84.852 1.46-6.663h6.592l-3.523 8.373c-.005.002-.01.002-.013.005-.31.986-1.22 1.708-2.306 1.708-1.342 0-2.43-1.089-2.43-2.428 0-.354.082-.69.22-.995" fill="#bebebe"/><path d="m79.67 85.848c0 .775.63 1.406 1.407 1.406s1.406-.631 1.406-1.406c0-.777-.629-1.407-1.406-1.407s-1.407.63-1.407 1.407" fill="#ed3343"/><path d="m31.878 85.848c0 3.272 2.653 5.925 5.927 5.925 3.273 0 5.926-2.653 5.926-5.925 0-3.274-2.653-5.928-5.926-5.928-3.274 0-5.927 2.654-5.927 5.928" fill="#333"/><path d="m35.62 84.852 1.46-6.663h6.593l-3.523 8.373c-.005.002-.01.002-.014.005-.308.986-1.218 1.708-2.306 1.708-1.34 0-2.428-1.089-2.428-2.428 0-.354.081-.69.218-.995" fill="#bebebe"/><path d="m36.424 85.848c0 .775.629 1.406 1.406 1.406s1.407-.631 1.407-1.406c0-.777-.63-1.407-1.407-1.407s-1.406.63-1.406 1.407" fill="#ed3343"/><path d="m22.75 91.611c0 3.272 2.654 5.927 5.927 5.927 3.272 0 5.926-2.655 5.926-5.927s-2.654-5.927-5.926-5.927c-3.273 0-5.927 2.655-5.927 5.927" fill="#333"/><path d="m26.491 90.616 1.46-6.662h6.592l-3.522 8.372-.014.005c-.308.986-1.217 1.706-2.306 1.706-1.34 0-2.428-1.085-2.428-2.426 0-.356.082-.69.218-.995" fill="#bebebe"/><path d="m27.295 91.611c0 .776.63 1.406 1.407 1.406s1.406-.63 1.406-1.406c0-.777-.629-1.407-1.406-1.407s-1.407.63-1.407 1.407" fill="#ed3343"/><path d="m66.222 91.611c0 3.272 2.654 5.927 5.928 5.927 3.271 0 5.926-2.655 5.926-5.927s-2.655-5.927-5.926-5.927c-3.274 0-5.928 2.655-5.928 5.927" fill="#333"/><path d="m69.964 90.616 1.46-6.662h6.593l-3.524 8.372-.013.005c-.309.986-1.218 1.706-2.306 1.706-1.34 0-2.428-1.085-2.428-2.426 0-.356.081-.69.218-.995" fill="#bebebe"/><path d="m70.768 91.611c0 .776.63 1.406 1.406 1.406.778 0 1.407-.63 1.407-1.406 0-.777-.629-1.407-1.407-1.407-.776 0-1.406.63-1.406 1.407" fill="#ed3343"/><path d="m26.624 85.08c.23 0 .464-.002.697-.004l.783-.002h54.774c.216 0 .427-.063.608-.18l9.259-5.98c.417-.27.607-.78.466-1.257-.14-.475-.577-.804-1.073-.804h-56.318c-1.337.067-3.305-.2-3.698-.865-.541-.91-.957-2.152.95-5.352 1.838-3.08 5.998-10.685 6.04-10.76.297-.543.098-1.224-.445-1.522-.543-.296-1.222-.097-1.52.447-.041.076-4.182 7.642-5.997 10.688-1.928 3.233-2.213 5.517-.955 7.64 1.235 2.086 4.948 2.003 5.682 1.963l52.463.001-5.793 3.741-55.24.003c-2.51.02-3.955-.024-4.636-1.047-.775-1.162-.321-2.149-.317-2.158l9.833-19.739c.276-.553.05-1.225-.502-1.5-.555-.276-1.227-.05-1.502.502l-9.832 19.738c-.394.788-.741 2.602.457 4.4 1.262 1.892 3.442 2.046 5.815 2.046" fill="#bebebe"/><path d="m35.878 79.092c-.734.04-4.447.123-5.683-1.963-1.257-2.123-.972-4.407.955-7.64 1.816-3.045 5.957-10.612 5.999-10.688.297-.544.976-.742 1.519-.446.543.298.742.978.445 1.52-.042.076-4.202 7.68-6.04 10.76-1.907 3.2-1.491 4.442-.951 5.353.393.665 2.361.932 3.698.866h56.317l-3.797 2.239z" fill="#bebebe"/><path d="m96.155 50.42c-.167.097-.34.198-.515.306l.06-5.222 2.443-1.6-.18 3.507c-.003.062 0 .125.013.187.009.056.256 1.636-1.821 2.823zm-12.728 7.25-.012-9.054 6.006.19-.231 6.868c-.121.253-1.057 1.839-5.763 1.997zm-.027-19.297 6.355.455-.286 8.488-6.057-.192zm-.014-10.457 6.709.757-.29 8.663-6.407-.46zm-9.352 29.907-.16-9.507 8.047.254.012 9.139c-1.755.034-4.526.073-7.9.114zm-.34-20.144 8.213.587.012 8.81-8.071-.255zm-.182-10.879 8.382.946.012 9.023-8.235-.59-.16-9.38zm-9.297 31.13-.098-9.923 8.264.26.162 9.573c-2.55.029-5.376.06-8.328.09zm-.206-20.945 8.192.586.155 9.203-8.254-.262zm-.111-11.27 8.118.916.16 9.442-8.182-.586zm-9.343 32.309-.148-10.324 8.217.26.097 9.984c-2.681.028-5.441.054-8.166.08zm-.312-21.738 8.27.592.096 9.587-8.224-.26-.142-9.92zm-.167-11.68 8.327.94.097 9.835-8.278-.592-.146-10.182zm-8.733 33.5-.552-10.71 8.122.256.148 10.385-7.718.07zm-1.163-22.54 8.568.613.143 9.979-8.177-.258-.534-10.333zm-.626-12.147 9.026 1.019.147 10.244-8.624-.617-.55-10.646zm-7.794 34.77-1.114-11.114 8.647.274.556 10.77c-3.086.028-5.86.05-8.09.07zm-2.344-23.393 9.264.663.536 10.393-8.72-.275zm-3.107 23.437c-.478-.122-3.324-.987-4.403-4.687-.31-1.062-.785-3.584-1.327-6.79l8.562.272 1.119 11.172-3.952.033zm-5.982-12.978c-.565-3.425-1.182-7.43-1.753-11.234l9.33.667 1.087 10.84zm-3.674-24.421 9.976 1.126 1.125 11.22-9.406-.672c-.77-5.17-1.423-9.755-1.695-11.674zm21.397 2.415.552 10.708-9.338-.668-1.118-11.158zm56.7 8.893-2.916 1.909.096-8.365 3.259-2.061-.44 8.517zm-2.937 3.706 2.842-1.861-.417 8.07-2.517 1.649zm-4.833 10.962.268-7.973 3.06-2.004-.09 7.858zm-.06 1.824 3.276-2.145-.06 5.22c-1.25.859-2.505 1.812-3.405 2.512zm.677-20.207 2.829-1.79-.097 8.399-3.02 1.976zm9.157-6.166c.013-.278-.13-.542-.37-.682-.241-.14-.54-.136-.775.014l-8.92 5.643-70.635-7.971-.97 1.142c.473 3.358 4.14 29.28 5.389 33.557 1.416 4.857 5.436 5.714 5.608 5.748l.075.014h.077c.472-.004 47.28-.376 53.193-.56 5.408-.17 6.794-2.132 7.132-2.905.74-.595 4.088-3.26 6.337-4.544 2.724-1.556 2.628-3.774 2.562-4.302z" fill="#cececd"/><path d="m25.108 15.387v.28l-1.025-.105-2.74.45-20.559-11.856s-1.348-1.16.486-3.3c1.83-2.139 4.223.461 3.667 0-.333-.277 20.171 14.531 20.171 14.531" fill="#ed3343" mask="url(#b)" transform="translate(18)"/><path d="m3.476 7.044 16.344-4.234s1.142-.477 2.292.386.224 1.676.224 1.676l-17.423 4.841s-2.24.755-3.026-.707c-.807-1.495 1.589-1.962 1.589-1.962" fill="#d61f2d"/><path d="m21.927 19.385s3.786.48 4.716.624c1.013.154.11 4.003-1.493 3.814-1.432-.168-5.703-.857-5.703-.857l-18.952-13.868s-1.402-1.211.514-3.44c1.914-2.23 4.402.487 3.824.004-.347-.29 17.094 13.723 17.094 13.723" fill="#ed3343"/></g></svg>