<?xml version="1.0" encoding="utf-8"?>
<!DOCTYPE svg PUBLIC "-//W3C//DTD SVG 1.1//EN" "http://www.w3.org/Graphics/SVG/1.1/DTD/svg11.dtd">
<svg version="1.1" id="Layer_1" xmlns="http://www.w3.org/2000/svg" xmlns:xlink="http://www.w3.org/1999/xlink" x="0px" y="0px"
	 viewBox="0 0 377.3 64.6" enable-background="new 0 0 377.3 64.6" xml:space="preserve">
<g>
	<defs>
		<rect id="SVGID_1_" y="0" width="377.3" height="64.6"/>
	</defs>
	<clipPath id="SVGID_2_">
		<use xlink:href="#SVGID_1_"  overflow="visible"/>
	</clipPath>
	<path clip-path="url(#SVGID_2_)" d="M167,54.5c-4.5,0-8.5-0.5-12.2-4.1l4.7-4.7c2.4,2.4,5.4,2.7,7.6,2.7c2.5,0,5-0.8,5-3
		c0-1.4-0.8-2.4-3-2.6l-4.5-0.4c-5.1-0.5-8.3-2.7-8.3-8c0-5.9,5.2-9.1,11-9.1c4.4,0,8.2,0.8,10.9,3.3l-4.4,4.4
		c-1.6-1.5-4.2-1.9-6.6-1.9c-2.8,0-4.1,1.3-4.1,2.7c0,1,0.4,2.2,3,2.5l4.5,0.4c5.6,0.5,8.5,3.6,8.5,8.4
		C179.1,51.5,173.8,54.5,167,54.5"/>
	<path clip-path="url(#SVGID_2_)" d="M199.3,54.2V36.8c0-3.8-2.4-5-4.7-5c-2.2,0-4.6,1.3-4.6,5v17.4h-7.1v-39h7.1v13.1
		c1.9-2,4.3-3,6.8-3c6.2,0,9.5,4.4,9.5,10.4v18.5H199.3z"/>
	<path clip-path="url(#SVGID_2_)" d="M231.6,51c-1.8,1.9-4.7,3.5-8.9,3.5c-4.2,0-7.1-1.6-8.8-3.5c-2.6-2.7-3.2-5.9-3.2-11.1
		c0-5.1,0.7-8.4,3.2-11.1c1.8-1.9,4.6-3.5,8.8-3.5c4.2,0,7.1,1.6,8.9,3.5c2.6,2.7,3.2,5.9,3.2,11.1C234.8,45.1,234.2,48.3,231.6,51
		 M226.1,33c-0.8-0.8-1.9-1.3-3.3-1.3c-1.4,0-2.5,0.4-3.3,1.3c-1.5,1.5-1.6,3.9-1.6,6.9c0,3,0.2,5.5,1.6,7c0.8,0.8,1.9,1.3,3.3,1.3
		c1.4,0,2.5-0.4,3.3-1.3c1.5-1.5,1.6-4,1.6-7C227.7,36.9,227.5,34.5,226.1,33"/>
	<path clip-path="url(#SVGID_2_)" d="M260.4,51.9c-1.6,1.6-4.2,2.6-7,2.6c-2.9,0-5-0.8-6.9-2.8v13h-7.1v-39h6.9v2.7
		c2-2.2,4.1-3,7.1-3c2.8,0,5.4,1,7,2.6c2.8,2.8,2.9,7.7,2.9,12C263.3,44.2,263.2,49.1,260.4,51.9 M251.4,31.7
		c-4.3,0-4.8,3.5-4.8,8.2c0,4.7,0.5,8.2,4.8,8.2c4.3,0,4.8-3.6,4.8-8.2C256.2,35.2,255.6,31.7,251.4,31.7"/>
	<polygon clip-path="url(#SVGID_2_)" fill="#EF3829" points="128.5,25.4 145.7,8.1 141.2,3.6 124,20.8 	"/>
	<rect x="110" y="0" clip-path="url(#SVGID_2_)" fill="#EF3829" width="6.4" height="18.5"/>
	<rect x="131.7" y="32.5" clip-path="url(#SVGID_2_)" fill="#EF3829" width="18.9" height="6.4"/>
	<path clip-path="url(#SVGID_2_)" fill="#EF3829" d="M117.9,44.9c-1.5,1.6-3.4,2.3-5.6,2.3c-2.1,0-4-0.7-5.5-2.3
		c-1.5-1.6-2.3-3.4-2.3-5.6c0-2.3,0.8-4.1,2.3-5.6c1.5-1.6,3.4-2.3,5.5-2.3c2.2-0.1,4,0.7,5.6,2.3c1.4,1.5,2.2,3.4,2.3,5.6
		C120.2,41.5,119.4,43.3,117.9,44.9 M122.9,28.7c-3-3-6.5-4.4-10.6-4.4c-4.1,0-7.6,1.4-10.4,4.4c-3,3-4.4,6.5-4.4,10.7
		s1.4,7.7,4.4,10.6c2.9,3,6.4,4.5,10.4,4.5c4,0,7.6-1.5,10.6-4.5c2.9-2.9,4.3-6.5,4.3-10.6S125.8,31.6,122.9,28.7"/>
	<path clip-path="url(#SVGID_2_)" fill="#EF3829" d="M18.4,16.9c-5.1-0.1-9.4,1.7-13,5.4C1.8,26,0,30.3,0,35.5
		c0,5.1,1.8,9.6,5.4,13.2c3.6,3.6,7.8,5.4,13,5.4c4.1,0,7.9-1.2,11.2-3.8c3.2-2.6,5.4-5.8,6.5-9.8h-7.5c-1,1.9-2.3,3.5-4.1,4.7
		c-1.9,1.2-3.9,1.8-6.1,1.8c-3.2,0-5.8-1.2-8-3.4c-2.3-2.3-3.4-4.9-3.3-8.1c-0.1-3.2,1-5.8,3.3-8.1c2.2-2.2,4.9-3.4,8-3.4
		c2.2,0,4.2,0.6,6.1,1.9c1.7,1.2,3.1,2.8,4.1,4.7H36c-1.1-4-3.2-7.3-6.5-9.8C26.3,18.2,22.5,16.9,18.4,16.9"/>
	<path clip-path="url(#SVGID_2_)" fill="#EF3829" d="M66.7,40.4l1.4-0.7v2.9c0,2.5-0.7,4.2-2,5.2c-1.4,1-2.8,1.4-4.5,1.4
		c-1,0-1.9-0.3-2.5-0.8c-0.7-0.6-1-1.5-1-2.8c0-1.4,0.6-2.5,1.7-3.2c0.7-0.4,1.9-0.8,3.4-1L66.7,40.4z M63.7,24.2
		c-4.8-0.1-8.2,1.2-10.1,3.8c-1.2,1.6-1.9,3.6-2.1,6.3h7.1c0.1-1.2,0.5-2.1,1-2.6c0.8-1,2-1.5,3.8-1.4c1.5-0.1,2.7,0.2,3.5,0.7
		c0.8,0.4,1.2,1.2,1.2,2.4c0,1-0.6,1.7-1.6,2.2l-5.5,0.9c-2.5,0.3-4.6,1-6.2,1.9c-2.7,1.6-4,4.1-3.9,7.8c-0.1,2.5,0.8,4.6,2.4,6.1
		c1.4,1.2,3.4,1.9,5.8,2c3.9-0.1,7-1,9.2-3v3h7.1v-21c0-3.4-1.2-5.8-3.6-7.1C69.5,24.8,66.8,24.1,63.7,24.2"/>
	<rect x="39.7" y="16.9" clip-path="url(#SVGID_2_)" fill="#EF3829" width="7.1" height="37.3"/>
	<path clip-path="url(#SVGID_2_)" fill="#EF3829" d="M92.2,25.2c-1.9,0.8-3.6,2.1-5.1,4.1v-3.6l-6.8-0.1v28.6h7.1V40.5
		c0-2.3,0.3-4,0.9-5c0.5-1.1,1.4-2,2.5-2.7c1.2-0.8,2.5-1.2,3.9-1.2l2.2,0.1l-0.1-7.3L95,24.5L92.2,25.2z"/>
	<path clip-path="url(#SVGID_2_)" d="M274,43.4l0.3,0c2.9,0,5.2,2.3,5.2,5.2c0,2.9-2.3,5.2-5.2,5.2l-0.3,0c-2.9,0-5.2-2.3-5.2-5.2
		C268.7,45.8,271.1,43.4,274,43.4"/>
	<path clip-path="url(#SVGID_2_)" d="M306.3,51c-2.5,2.5-5.5,3.6-9.4,3.6c-4.2,0-7.4-1.3-9.9-4c-1.9-2.5-3.2-5.9-3.2-10.1
		c0-4.2,1-7.6,2.9-10.1c2.1-2.7,5.3-4.2,9.5-4.2c4,0,6.9,1.3,9.4,3.6l-4.8,4.6c-1.5-1.5-2.9-2.1-4.6-2.1c-3.6,0-5.5,2.7-5.5,7.8
		c0,5.1,1.9,7.8,5.5,7.8c1.7,0,3.2-0.8,4.6-2.1L306.3,51z"/>
	<path clip-path="url(#SVGID_2_)" d="M332.8,40.9c0,2.5-0.2,4.6-0.6,5.5c-0.6,1.9-1.5,3.6-2.7,4.8c-2.1,2.1-5.2,3.4-8.8,3.4
		c-8,0-12-4.6-12-13.9c0-4.2,1-7.6,2.7-9.9c1.9-2.7,5.2-4.2,9.4-4.2c4.2,0,7.4,1.5,9.4,4.2C331.7,33.1,332.7,36.8,332.8,40.9
		 M325.6,40.9c0-2.1-0.2-4.2-0.8-5.1c-0.8-1.7-2.1-2.7-4.2-2.7c-3.2,0-4.8,2.7-4.8,7.8c0,2.5,0.2,4.2,0.8,5.1
		c0.8,1.7,2.1,2.7,4.2,2.7c1.9,0,3.4-1,4.2-2.7C325.4,44.9,325.6,43.2,325.6,40.9"/>
	<path clip-path="url(#SVGID_2_)" d="M377.3,54.5h-7.3V37.9c0-1.5-0.6-2.7-1.3-3.6c-0.8-1-1.9-1.5-3.4-1.5c-1.5,0-2.7,0.6-3.4,1.3
		c-0.8,1-1.3,1.9-1.3,3.4v16.6h-7.3V37.5c0-1.5-0.6-2.7-1.3-3.6c-0.8-1-1.9-1.5-3.4-1.5c-3.2,0-4.6,1.7-4.6,4.8v16.6h-7.3V26.3h6.9
		v2.5c1.9-1.9,4.2-2.9,7.3-2.9c3.2,0,5.9,1.3,7.6,3.4c2.1-2.1,5.2-3.4,8.6-3.4c3.2,0,5.5,1,7.4,2.7c1.7,1.9,2.7,4.6,2.7,7.4
		L377.3,54.5z"/>
</g>
</svg>
