<?xml version="1.0" encoding="utf-8"?>
<!-- Generator: Adobe Illustrator 22.1.0, SVG Export Plug-In . SVG Version: 6.00 Build 0)  -->
<svg version="1.1" id="Layer_1" xmlns="http://www.w3.org/2000/svg" xmlns:xlink="http://www.w3.org/1999/xlink" x="0px" y="0px"
	 viewBox="0 0 377.3 64.6" style="enable-background:new 0 0 377.3 64.6;" xml:space="preserve">
<style type="text/css">
	.st0{clip-path:url(#SVGID_2_);fill:#FFFFFF;}
	.st1{clip-path:url(#SVGID_4_);fill:#FFFFFF;}
	.st2{clip-path:url(#SVGID_6_);fill:#FFFFFF;}
	.st3{clip-path:url(#SVGID_8_);fill:#FFFFFF;}
	.st4{clip-path:url(#SVGID_10_);fill:#EF3829;}
	.st5{clip-path:url(#SVGID_12_);fill:#EF3829;}
	.st6{clip-path:url(#SVGID_14_);fill:#EF3829;}
	.st7{clip-path:url(#SVGID_16_);fill:#EF3829;}
	.st8{clip-path:url(#SVGID_18_);fill:#EF3829;}
	.st9{clip-path:url(#SVGID_20_);fill:#EF3829;}
	.st10{clip-path:url(#SVGID_22_);fill:#EF3829;}
	.st11{clip-path:url(#SVGID_24_);fill:#EF3829;}
	.st12{clip-path:url(#SVGID_26_);fill:#FFFFFF;}
	.st13{clip-path:url(#SVGID_28_);fill:#FFFFFF;}
	.st14{clip-path:url(#SVGID_30_);fill:#FFFFFF;}
	.st15{clip-path:url(#SVGID_32_);fill:#FFFFFF;}
</style>
<g>
	<g>
		<defs>
			<rect id="SVGID_1_" width="377.3" height="64.6"/>
		</defs>
		<clipPath id="SVGID_2_">
			<use xlink:href="#SVGID_1_"  style="overflow:visible;"/>
		</clipPath>
		<path class="st0" d="M167,54.5c-4.5,0-8.5-0.5-12.2-4.1l4.7-4.7c2.4,2.4,5.4,2.7,7.6,2.7c2.5,0,5-0.8,5-3c0-1.4-0.8-2.4-3-2.6
			l-4.5-0.4c-5.1-0.5-8.3-2.7-8.3-8c0-5.9,5.2-9.1,11-9.1c4.4,0,8.2,0.8,10.9,3.3l-4.4,4.4c-1.6-1.5-4.2-1.9-6.6-1.9
			c-2.8,0-4.1,1.3-4.1,2.7c0,1,0.4,2.2,3,2.5l4.5,0.4c5.6,0.5,8.5,3.6,8.5,8.4C179.1,51.5,173.8,54.5,167,54.5"/>
	</g>
	<g>
		<defs>
			<rect id="SVGID_3_" width="377.3" height="64.6"/>
		</defs>
		<clipPath id="SVGID_4_">
			<use xlink:href="#SVGID_3_"  style="overflow:visible;"/>
		</clipPath>
		<path class="st1" d="M199.3,54.2V36.8c0-3.8-2.4-5-4.7-5c-2.2,0-4.6,1.3-4.6,5v17.4h-7.1v-39h7.1v13.1c1.9-2,4.3-3,6.8-3
			c6.2,0,9.5,4.4,9.5,10.4v18.5C206.3,54.2,199.3,54.2,199.3,54.2z"/>
	</g>
	<g>
		<defs>
			<rect id="SVGID_5_" width="377.3" height="64.6"/>
		</defs>
		<clipPath id="SVGID_6_">
			<use xlink:href="#SVGID_5_"  style="overflow:visible;"/>
		</clipPath>
		<path class="st2" d="M231.6,51c-1.8,1.9-4.7,3.5-8.9,3.5s-7.1-1.6-8.8-3.5c-2.6-2.7-3.2-5.9-3.2-11.1c0-5.1,0.7-8.4,3.2-11.1
			c1.8-1.9,4.6-3.5,8.8-3.5s7.1,1.6,8.9,3.5c2.6,2.7,3.2,5.9,3.2,11.1S234.2,48.3,231.6,51 M226.1,33c-0.8-0.8-1.9-1.3-3.3-1.3
			c-1.4,0-2.5,0.4-3.3,1.3c-1.5,1.5-1.6,3.9-1.6,6.9s0.2,5.5,1.6,7c0.8,0.8,1.9,1.3,3.3,1.3c1.4,0,2.5-0.4,3.3-1.3
			c1.5-1.5,1.6-4,1.6-7C227.7,36.9,227.5,34.5,226.1,33"/>
	</g>
	<g>
		<defs>
			<rect id="SVGID_7_" width="377.3" height="64.6"/>
		</defs>
		<clipPath id="SVGID_8_">
			<use xlink:href="#SVGID_7_"  style="overflow:visible;"/>
		</clipPath>
		<path class="st3" d="M260.4,51.9c-1.6,1.6-4.2,2.6-7,2.6c-2.9,0-5-0.8-6.9-2.8v13h-7.1v-39h6.9v2.7c2-2.2,4.1-3,7.1-3
			c2.8,0,5.4,1,7,2.6c2.8,2.8,2.9,7.7,2.9,12C263.3,44.2,263.2,49.1,260.4,51.9 M251.4,31.7c-4.3,0-4.8,3.5-4.8,8.2s0.5,8.2,4.8,8.2
			s4.8-3.6,4.8-8.2C256.2,35.2,255.6,31.7,251.4,31.7"/>
	</g>
	<g>
		<defs>
			<rect id="SVGID_9_" width="377.3" height="64.6"/>
		</defs>
		<clipPath id="SVGID_10_">
			<use xlink:href="#SVGID_9_"  style="overflow:visible;"/>
		</clipPath>
		<polygon class="st4" points="128.5,25.4 145.7,8.1 141.2,3.6 124,20.8 		"/>
	</g>
	<g>
		<defs>
			<rect id="SVGID_11_" width="377.3" height="64.6"/>
		</defs>
		<clipPath id="SVGID_12_">
			<use xlink:href="#SVGID_11_"  style="overflow:visible;"/>
		</clipPath>
		<rect x="110" class="st5" width="6.4" height="18.5"/>
	</g>
	<g>
		<defs>
			<rect id="SVGID_13_" width="377.3" height="64.6"/>
		</defs>
		<clipPath id="SVGID_14_">
			<use xlink:href="#SVGID_13_"  style="overflow:visible;"/>
		</clipPath>
		<rect x="131.7" y="32.5" class="st6" width="18.9" height="6.4"/>
	</g>
	<g>
		<defs>
			<rect id="SVGID_15_" width="377.3" height="64.6"/>
		</defs>
		<clipPath id="SVGID_16_">
			<use xlink:href="#SVGID_15_"  style="overflow:visible;"/>
		</clipPath>
		<path class="st7" d="M117.9,44.9c-1.5,1.6-3.4,2.3-5.6,2.3c-2.1,0-4-0.7-5.5-2.3s-2.3-3.4-2.3-5.6c0-2.3,0.8-4.1,2.3-5.6
			c1.5-1.6,3.4-2.3,5.5-2.3c2.2-0.1,4,0.7,5.6,2.3c1.4,1.5,2.2,3.4,2.3,5.6C120.2,41.5,119.4,43.3,117.9,44.9 M122.9,28.7
			c-3-3-6.5-4.4-10.6-4.4s-7.6,1.4-10.4,4.4c-3,3-4.4,6.5-4.4,10.7s1.4,7.7,4.4,10.6c2.9,3,6.4,4.5,10.4,4.5s7.6-1.5,10.6-4.5
			c2.9-2.9,4.3-6.5,4.3-10.6S125.8,31.6,122.9,28.7"/>
	</g>
	<g>
		<defs>
			<rect id="SVGID_17_" width="377.3" height="64.6"/>
		</defs>
		<clipPath id="SVGID_18_">
			<use xlink:href="#SVGID_17_"  style="overflow:visible;"/>
		</clipPath>
		<path class="st8" d="M18.4,16.9c-5.1-0.1-9.4,1.7-13,5.4S0,30.3,0,35.5c0,5.1,1.8,9.6,5.4,13.2c3.6,3.6,7.8,5.4,13,5.4
			c4.1,0,7.9-1.2,11.2-3.8c3.2-2.6,5.4-5.8,6.5-9.8h-7.5c-1,1.9-2.3,3.5-4.1,4.7c-1.9,1.2-3.9,1.8-6.1,1.8c-3.2,0-5.8-1.2-8-3.4
			c-2.3-2.3-3.4-4.9-3.3-8.1c-0.1-3.2,1-5.8,3.3-8.1c2.2-2.2,4.9-3.4,8-3.4c2.2,0,4.2,0.6,6.1,1.9c1.7,1.2,3.1,2.8,4.1,4.7H36
			c-1.1-4-3.2-7.3-6.5-9.8C26.3,18.2,22.5,16.9,18.4,16.9"/>
	</g>
	<g>
		<defs>
			<rect id="SVGID_19_" width="377.3" height="64.6"/>
		</defs>
		<clipPath id="SVGID_20_">
			<use xlink:href="#SVGID_19_"  style="overflow:visible;"/>
		</clipPath>
		<path class="st9" d="M66.7,40.4l1.4-0.7v2.9c0,2.5-0.7,4.2-2,5.2c-1.4,1-2.8,1.4-4.5,1.4c-1,0-1.9-0.3-2.5-0.8
			c-0.7-0.6-1-1.5-1-2.8c0-1.4,0.6-2.5,1.7-3.2c0.7-0.4,1.9-0.8,3.4-1L66.7,40.4z M63.7,24.2c-4.8-0.1-8.2,1.2-10.1,3.8
			c-1.2,1.6-1.9,3.6-2.1,6.3h7.1c0.1-1.2,0.5-2.1,1-2.6c0.8-1,2-1.5,3.8-1.4c1.5-0.1,2.7,0.2,3.5,0.7c0.8,0.4,1.2,1.2,1.2,2.4
			c0,1-0.6,1.7-1.6,2.2L61,36.5c-2.5,0.3-4.6,1-6.2,1.9c-2.7,1.6-4,4.1-3.9,7.8c-0.1,2.5,0.8,4.6,2.4,6.1c1.4,1.2,3.4,1.9,5.8,2
			c3.9-0.1,7-1,9.2-3v3h7.1v-21c0-3.4-1.2-5.8-3.6-7.1C69.5,24.8,66.8,24.1,63.7,24.2"/>
	</g>
	<g>
		<defs>
			<rect id="SVGID_21_" width="377.3" height="64.6"/>
		</defs>
		<clipPath id="SVGID_22_">
			<use xlink:href="#SVGID_21_"  style="overflow:visible;"/>
		</clipPath>
		<rect x="39.7" y="16.9" class="st10" width="7.1" height="37.3"/>
	</g>
	<g>
		<defs>
			<rect id="SVGID_23_" width="377.3" height="64.6"/>
		</defs>
		<clipPath id="SVGID_24_">
			<use xlink:href="#SVGID_23_"  style="overflow:visible;"/>
		</clipPath>
		<path class="st11" d="M92.2,25.2c-1.9,0.8-3.6,2.1-5.1,4.1v-3.6l-6.8-0.1v28.6h7.1V40.5c0-2.3,0.3-4,0.9-5c0.5-1.1,1.4-2,2.5-2.7
			c1.2-0.8,2.5-1.2,3.9-1.2l2.2,0.1l-0.1-7.3L95,24.5L92.2,25.2z"/>
	</g>
	<g>
		<defs>
			<rect id="SVGID_25_" width="377.3" height="64.6"/>
		</defs>
		<clipPath id="SVGID_26_">
			<use xlink:href="#SVGID_25_"  style="overflow:visible;"/>
		</clipPath>
		<path class="st12" d="M274,43.4h0.3c2.9,0,5.2,2.3,5.2,5.2s-2.3,5.2-5.2,5.2H274c-2.9,0-5.2-2.3-5.2-5.2
			C268.7,45.8,271.1,43.4,274,43.4"/>
	</g>
	<g>
		<defs>
			<rect id="SVGID_27_" width="377.3" height="64.6"/>
		</defs>
		<clipPath id="SVGID_28_">
			<use xlink:href="#SVGID_27_"  style="overflow:visible;"/>
		</clipPath>
		<path class="st13" d="M306.3,51c-2.5,2.5-5.5,3.6-9.4,3.6c-4.2,0-7.4-1.3-9.9-4c-1.9-2.5-3.2-5.9-3.2-10.1s1-7.6,2.9-10.1
			c2.1-2.7,5.3-4.2,9.5-4.2c4,0,6.9,1.3,9.4,3.6l-4.8,4.6c-1.5-1.5-2.9-2.1-4.6-2.1c-3.6,0-5.5,2.7-5.5,7.8s1.9,7.8,5.5,7.8
			c1.7,0,3.2-0.8,4.6-2.1L306.3,51z"/>
	</g>
	<g>
		<defs>
			<rect id="SVGID_29_" width="377.3" height="64.6"/>
		</defs>
		<clipPath id="SVGID_30_">
			<use xlink:href="#SVGID_29_"  style="overflow:visible;"/>
		</clipPath>
		<path class="st14" d="M332.8,40.9c0,2.5-0.2,4.6-0.6,5.5c-0.6,1.9-1.5,3.6-2.7,4.8c-2.1,2.1-5.2,3.4-8.8,3.4c-8,0-12-4.6-12-13.9
			c0-4.2,1-7.6,2.7-9.9c1.9-2.7,5.2-4.2,9.4-4.2c4.2,0,7.4,1.5,9.4,4.2C331.7,33.1,332.7,36.8,332.8,40.9 M325.6,40.9
			c0-2.1-0.2-4.2-0.8-5.1c-0.8-1.7-2.1-2.7-4.2-2.7c-3.2,0-4.8,2.7-4.8,7.8c0,2.5,0.2,4.2,0.8,5.1c0.8,1.7,2.1,2.7,4.2,2.7
			c1.9,0,3.4-1,4.2-2.7C325.4,44.9,325.6,43.2,325.6,40.9"/>
	</g>
	<g>
		<defs>
			<rect id="SVGID_31_" width="377.3" height="64.6"/>
		</defs>
		<clipPath id="SVGID_32_">
			<use xlink:href="#SVGID_31_"  style="overflow:visible;"/>
		</clipPath>
		<path class="st15" d="M377.3,54.5H370V37.9c0-1.5-0.6-2.7-1.3-3.6c-0.8-1-1.9-1.5-3.4-1.5s-2.7,0.6-3.4,1.3
			c-0.8,1-1.3,1.9-1.3,3.4v16.6h-7.3V37.5c0-1.5-0.6-2.7-1.3-3.6c-0.8-1-1.9-1.5-3.4-1.5c-3.2,0-4.6,1.7-4.6,4.8v16.6h-7.3V26.3h6.9
			v2.5c1.9-1.9,4.2-2.9,7.3-2.9c3.2,0,5.9,1.3,7.6,3.4c2.1-2.1,5.2-3.4,8.6-3.4c3.2,0,5.5,1,7.4,2.7c1.7,1.9,2.7,4.6,2.7,7.4
			L377.3,54.5z"/>
	</g>
</g>
</svg>
