<?xml version="1.0" encoding="utf-8"?>
<!-- Generator: Adobe Illustrator 22.1.0, SVG Export Plug-In . SVG Version: 6.00 Build 0)  -->
<svg version="1.1" id="Capa_1" xmlns="http://www.w3.org/2000/svg" xmlns:xlink="http://www.w3.org/1999/xlink" x="0px" y="0px"
	 viewBox="0 0 107 132" style="enable-background:new 0 0 107 132;" xml:space="preserve">
<style type="text/css">
	.st0{clip-path:url(#SVGID_2_);}
	.st1{clip-path:url(#SVGID_4_);fill:#FF283D;}
	.st2{clip-path:url(#SVGID_6_);}
	.st3{clip-path:url(#SVGID_8_);fill:#D71A2C;}
	.st4{clip-path:url(#SVGID_10_);}
	.st5{clip-path:url(#SVGID_12_);fill:#AFAFAF;}
	.st6{clip-path:url(#SVGID_14_);}
	.st7{clip-path:url(#SVGID_16_);fill:#949393;}
	.st8{clip-path:url(#SVGID_18_);}
	.st9{clip-path:url(#SVGID_20_);fill:#333333;}
	.st10{clip-path:url(#SVGID_22_);}
	.st11{clip-path:url(#SVGID_24_);fill:#333333;}
	.st12{clip-path:url(#SVGID_26_);}
	.st13{clip-path:url(#SVGID_28_);fill:#9B9B9B;}
	.st14{clip-path:url(#SVGID_30_);}
	.st15{clip-path:url(#SVGID_32_);fill:#9B9B9B;}
	.st16{clip-path:url(#SVGID_34_);}
	.st17{clip-path:url(#SVGID_36_);fill:#9B9B9B;}
	.st18{clip-path:url(#SVGID_38_);}
	.st19{clip-path:url(#SVGID_40_);fill:#FF283D;}
	.st20{clip-path:url(#SVGID_42_);}
	.st21{clip-path:url(#SVGID_44_);fill:#9B9B9B;}
</style>
<g>
	<defs>
		<path id="SVGID_1_" d="M82.8,87.9L18.3,23.4c-17.8,17.8-17.8,46.7,0,64.5S65,105.7,82.8,87.9z"/>
	</defs>
	<clipPath id="SVGID_2_">
		<use xlink:href="#SVGID_1_"  style="overflow:visible;"/>
	</clipPath>
	<g class="st0">
		<defs>
			<rect id="SVGID_3_" x="-136" y="-165" width="375" height="688"/>
		</defs>
		<clipPath id="SVGID_4_">
			<use xlink:href="#SVGID_3_"  style="overflow:visible;"/>
		</clipPath>
		
			<rect x="6.6" y="21.2" transform="matrix(0.7071 -0.7071 0.7071 0.7071 -40.6746 45.3577)" class="st1" width="55.6" height="101.2"/>
	</g>
</g>
<g>
	<defs>
		<path id="SVGID_5_" d="M82.8,87.9l-56-55.8C9,50,11,79.4,18.3,87.9C36.1,105.7,65,105.7,82.8,87.9z"/>
	</defs>
	<clipPath id="SVGID_6_">
		<use xlink:href="#SVGID_5_"  style="overflow:visible;"/>
	</clipPath>
	<g class="st2">
		<defs>
			<rect id="SVGID_7_" x="-136" y="-165" width="375" height="688"/>
		</defs>
		<clipPath id="SVGID_8_">
			<use xlink:href="#SVGID_7_"  style="overflow:visible;"/>
		</clipPath>
		
			<rect x="10.9" y="31.6" transform="matrix(0.7071 -0.7071 0.7071 0.7071 -42.478 49.6847)" class="st3" width="55.6" height="89"/>
	</g>
</g>
<g>
	<defs>
		<polygon id="SVGID_9_" points="16.2,95.5 16.2,106 0,124.2 0,132 42,132 42,124.2 25.6,106 25.6,93 		"/>
	</defs>
	<clipPath id="SVGID_10_">
		<use xlink:href="#SVGID_9_"  style="overflow:visible;"/>
	</clipPath>
	<g class="st4">
		<defs>
			<rect id="SVGID_11_" x="-136" y="-165" width="375" height="688"/>
		</defs>
		<clipPath id="SVGID_12_">
			<use xlink:href="#SVGID_11_"  style="overflow:visible;"/>
		</clipPath>
		<rect x="-5" y="88" class="st5" width="52" height="49"/>
	</g>
</g>
<g>
	<defs>
		<path id="SVGID_13_" d="M15,95.5v3.7c2.9,0.3,4.9,0.1,6-0.7c0,0-0.3,2.5-0.8,7.5l14,18.2v7.8H41v-7.8L24.5,106V93L15,95.5z"/>
	</defs>
	<clipPath id="SVGID_14_">
		<use xlink:href="#SVGID_13_"  style="overflow:visible;"/>
	</clipPath>
	<g class="st6">
		<defs>
			<rect id="SVGID_15_" x="-136" y="-165" width="375" height="688"/>
		</defs>
		<clipPath id="SVGID_16_">
			<use xlink:href="#SVGID_15_"  style="overflow:visible;"/>
		</clipPath>
		<rect x="10" y="88" class="st7" width="36" height="49"/>
	</g>
</g>
<g>
	<defs>
		<polygon id="SVGID_17_" points="45,49.6 63,44 57.8,63 		"/>
	</defs>
	<clipPath id="SVGID_18_">
		<use xlink:href="#SVGID_17_"  style="overflow:visible;"/>
	</clipPath>
	<g class="st8">
		<defs>
			<rect id="SVGID_19_" x="-136" y="-165" width="375" height="688"/>
		</defs>
		<clipPath id="SVGID_20_">
			<use xlink:href="#SVGID_19_"  style="overflow:visible;"/>
		</clipPath>
		<rect x="40" y="39" class="st9" width="28" height="29"/>
	</g>
</g>
<g>
	<defs>
		<ellipse id="SVGID_21_" cx="18.5" cy="90" rx="7.5" ry="7"/>
	</defs>
	<clipPath id="SVGID_22_">
		<use xlink:href="#SVGID_21_"  style="overflow:visible;"/>
	</clipPath>
	<g class="st10">
		<defs>
			<rect id="SVGID_23_" x="-136" y="-165" width="375" height="688"/>
		</defs>
		<clipPath id="SVGID_24_">
			<use xlink:href="#SVGID_23_"  style="overflow:visible;"/>
		</clipPath>
		<rect x="6" y="78" class="st11" width="25" height="24"/>
	</g>
</g>
<g>
	<defs>
		<circle id="SVGID_25_" cx="63" cy="45" r="4"/>
	</defs>
	<clipPath id="SVGID_26_">
		<use xlink:href="#SVGID_25_"  style="overflow:visible;"/>
	</clipPath>
	<g class="st12">
		<defs>
			<rect id="SVGID_27_" x="-136" y="-165" width="375" height="688"/>
		</defs>
		<clipPath id="SVGID_28_">
			<use xlink:href="#SVGID_27_"  style="overflow:visible;"/>
		</clipPath>
		<rect x="54" y="36" class="st13" width="18" height="18"/>
	</g>
</g>
<g>
	<defs>
		<path id="SVGID_29_" d="M62.4,13.8c-1.9,0-3.4,1.5-3.4,3.4c0,1.9,1.5,3.4,3.4,3.4c13.1,0,23.7,10.6,23.7,23.7c0,0.9,0.4,1.8,1,2.4
			c0.6,0.6,1.5,1,2.4,1c1.9,0,3.4-1.5,3.4-3.4C93,27.5,79.3,13.8,62.4,13.8z"/>
	</defs>
	<clipPath id="SVGID_30_">
		<use xlink:href="#SVGID_29_"  style="overflow:visible;"/>
	</clipPath>
	<g class="st14">
		<defs>
			<rect id="SVGID_31_" x="-136" y="-165" width="375" height="688"/>
		</defs>
		<clipPath id="SVGID_32_">
			<use xlink:href="#SVGID_31_"  style="overflow:visible;"/>
		</clipPath>
		
			<rect x="66.4" y="0.4" transform="matrix(0.7071 -0.7071 0.7071 0.7071 3.3044 63.8886)" class="st15" width="24.8" height="55.1"/>
	</g>
</g>
<g>
	<defs>
		<path id="SVGID_33_" d="M62.4,26.9c-1.9,0-3.4,1.5-3.4,3.4c0,1.9,1.5,3.4,3.4,3.4c5.8,0,10.6,4.7,10.6,10.6c0,0.9,0.4,1.8,1,2.4
			c0.6,0.6,1.5,1,2.4,1c1.9,0,3.4-1.5,3.4-3.4C79.9,34.7,72,26.9,62.4,26.9z"/>
	</defs>
	<clipPath id="SVGID_34_">
		<use xlink:href="#SVGID_33_"  style="overflow:visible;"/>
	</clipPath>
	<g class="st16">
		<defs>
			<rect id="SVGID_35_" x="-136" y="-165" width="375" height="688"/>
		</defs>
		<clipPath id="SVGID_36_">
			<use xlink:href="#SVGID_35_"  style="overflow:visible;"/>
		</clipPath>
		
			<rect x="60.4" y="17.5" transform="matrix(0.7071 -0.7071 0.7071 0.7071 -4.5958 60.6109)" class="st17" width="21" height="36.6"/>
	</g>
</g>
<g>
	<defs>
		
			<ellipse id="SVGID_37_" transform="matrix(0.7071 -0.7072 0.7072 0.7071 -13.0375 57.1251)" cx="62.4" cy="44.3" rx="4.6" ry="4.6"/>
	</defs>
	<clipPath id="SVGID_38_">
		<use xlink:href="#SVGID_37_"  style="overflow:visible;"/>
	</clipPath>
	<g class="st18">
		<defs>
			<rect id="SVGID_39_" x="-136" y="-165" width="375" height="688"/>
		</defs>
		<clipPath id="SVGID_40_">
			<use xlink:href="#SVGID_39_"  style="overflow:visible;"/>
		</clipPath>
		
			<rect x="52.9" y="34.7" transform="matrix(0.7071 -0.7071 0.7071 0.7071 -13.0385 57.1193)" class="st19" width="19.1" height="19.1"/>
	</g>
</g>
<g>
	<defs>
		<path id="SVGID_41_" d="M106.2,44.3c0-24.2-19.6-43.8-43.8-43.8C60.6,0.5,59,2,59,3.9c0,1.9,1.5,3.4,3.4,3.4c20.4,0,37,16.6,37,37
			c0,0.9,0.4,1.8,1,2.4c0.6,0.6,1.5,1,2.4,1C104.7,47.7,106.2,46.2,106.2,44.3z"/>
	</defs>
	<clipPath id="SVGID_42_">
		<use xlink:href="#SVGID_41_"  style="overflow:visible;"/>
	</clipPath>
	<g class="st20">
		<defs>
			<rect id="SVGID_43_" x="-136" y="-165" width="375" height="688"/>
		</defs>
		<clipPath id="SVGID_44_">
			<use xlink:href="#SVGID_43_"  style="overflow:visible;"/>
		</clipPath>
		
			<rect x="72.5" y="-17" transform="matrix(0.7071 -0.7071 0.7071 0.7071 11.3308 67.2133)" class="st21" width="28.7" height="73.9"/>
	</g>
</g>
</svg>
