<svg xmlns="http://www.w3.org/2000/svg"
    width="174dp"
    height="270dp"
    viewBox="0 0 174 270">
  <path
      d="M16.82,7.04L156.22,7.04A6.06,6.06 0,0 1,162.28 13.1L162.28,250.98A6.06,6.06 0,0 1,156.22 257.04L16.82,257.04A6.06,6.06 0,0 1,10.76 250.98L10.76,13.1A6.06,6.06 0,0 1,16.82 7.04z"
      fill="#fff"/>
  <path
      d="M13.12,41.14L159.92,41.14A2.36,2.36 0,0 1,162.28 43.5L162.28,173.34A2.36,2.36 0,0 1,159.92 175.7L13.12,175.7A2.36,2.36 0,0 1,10.76 173.34L10.76,43.5A2.36,2.36 0,0 1,13.12 41.14z"
      fill="#e3edf9"/>
  <path
      d="M162.27,18.41H10.76V12.73A5.7,5.7 0,0 1,16.44 7H156.59a5.7,5.7 0,0 1,5.68 5.69Z"
      fill="#e12726"/>
  <path
      d="M10.76,18.41h151.52v22.73h-151.52z"
      fill="#fff"/>
  <path
      d="M18.21,24.09L28.05,24.09A1.14,1.135 0,0 1,29.19 25.225L29.19,25.225A1.14,1.135 0,0 1,28.05 26.36L18.21,26.36A1.14,1.135 0,0 1,17.07 25.225L17.07,25.225A1.14,1.135 0,0 1,18.21 24.09z"
      fill="#9ea5ad"/>
  <path
      d="M18.21,28.64L28.05,28.64A1.14,1.135 0,0 1,29.19 29.775L29.19,29.775A1.14,1.135 0,0 1,28.05 30.91L18.21,30.91A1.14,1.135 0,0 1,17.07 29.775L17.07,29.775A1.14,1.135 0,0 1,18.21 28.64z"
      fill="#9ea5ad"/>
  <path
      d="M18.21,33.18L28.05,33.18A1.14,1.135 0,0 1,29.19 34.315L29.19,34.315A1.14,1.135 0,0 1,28.05 35.45L18.21,35.45A1.14,1.135 0,0 1,17.07 34.315L17.07,34.315A1.14,1.135 0,0 1,18.21 33.18z"
      fill="#9ea5ad"/>
  <path
      d="M135,35.46a0.82,0.82 0,0 1,-0.59 -0.24l-0.15,-0.14 -2.4,-2.4a5.22,5.22 0,0 1,-2.74 0.85,4.72 4.72,0 1,1 4.71,-4.71 5.08,5.08 0,0 1,-0.82 2.66l2.57,2.57a0.82,0.82 0,0 1,0.24 0.59,0.82 0.82,0 0,1 -0.82,0.82ZM129.12,25.65a3.17,3.17 0,1 0,3.16 3.17A3.17,3.17 0,0 0,129.15 25.65Z"
      fill="#9ea5ad"/>
  <path
      d="M47.36,129.41l36.6,46.28l-73.2,0l36.6,-46.28z"
      fill="#c1c8d3"
      fill-rule="evenOdd"/>
  <path
      d="M100.98,106.27l54.48,69.42l-108.95,0l54.47,-69.42z"
      fill="#d6e0ec"
      fill-rule="evenOdd"/>
  <path
      d="M19.34,185.01L154.49,185.01A2.27,2.27 0,0 1,156.76 187.28L156.76,191.07A2.27,2.27 0,0 1,154.49 193.34L19.34,193.34A2.27,2.27 0,0 1,17.07 191.07L17.07,187.28A2.27,2.27 0,0 1,19.34 185.01z"
      fill="#ddd"/>
  <path
      d="M18.73,200.54L124.33,200.54A1.66,1.66 0,0 1,125.99 202.2L125.99,204.58A1.66,1.66 0,0 1,124.33 206.24L18.73,206.24A1.66,1.66 0,0 1,17.07 204.58L17.07,202.2A1.66,1.66 0,0 1,18.73 200.54z"
      fill="#ddd"/>
  <path
      d="M18.14,240.69L61.45,240.69A1.07,1.07 0,0 1,62.52 241.76L62.52,245.32A1.07,1.07 0,0 1,61.45 246.39L18.14,246.39A1.07,1.07 0,0 1,17.07 245.32L17.07,241.76A1.07,1.07 0,0 1,18.14 240.69z"
      fill="#ddd"/>
  <path
      d="M18.31,227.66L61.28,227.66A1.24,1.24 0,0 1,62.52 228.9L62.52,234A1.24,1.24 0,0 1,61.28 235.24L18.31,235.24A1.24,1.24 0,0 1,17.07 234L17.07,228.9A1.24,1.24 0,0 1,18.31 227.66z"
      fill="#ddd"/>
  <path
      d="M22.78,213.07l0.93,1.88a0.77,0.77 0,0 0,0.59 0.44l2.08,0.3a0.79,0.79 0,0 1,0.44 1.35l-1.51,1.47a0.78,0.78 0,0 0,-0.22 0.7l0.35,2.07a0.79,0.79 0,0 1,-1.15 0.83l-1.86,-1a0.79,0.79 0,0 0,-0.73 0l-1.86,1a0.79,0.79 0,0 1,-1.15 -0.83l0.36,-2.07a0.82,0.82 0,0 0,-0.23 -0.7L17.31,217a0.79,0.79 0,0 1,0.44 -1.35l2.08,-0.3a0.8,0.8 0,0 0,0.6 -0.44l0.93,-1.88a0.79,0.79 0,0 1,1.42 0Z"
      fill="#ddd"/>
  <path
      d="M36.61,213.07l0.93,1.88a0.8,0.8 0,0 0,0.6 0.44l2.08,0.3a0.79,0.79 0,0 1,0.44 1.35l-1.51,1.47a0.82,0.82 0,0 0,-0.23 0.7l0.36,2.07a0.79,0.79 0,0 1,-1.15 0.83l-1.86,-1a0.81,0.81 0,0 0,-0.74 0l-1.85,1a0.79,0.79 0,0 1,-1.15 -0.83l0.35,-2.07a0.76,0.76 0,0 0,-0.23 -0.7L31.15,217a0.79,0.79 0,0 1,0.44 -1.35l2.08,-0.3a0.77,0.77 0,0 0,0.59 -0.44l0.93,-1.88a0.79,0.79 0,0 1,1.42 0Z"
      fill="#ddd"/>
  <path
      d="M50.47,213.07 L51.4,215a0.8,0.8 0,0 0,0.6 0.44l2.08,0.3a0.79,0.79 0,0 1,0.44 1.35L53,218.51a0.82,0.82 0,0 0,-0.23 0.7l0.36,2.07a0.79,0.79 0,0 1,-1.15 0.83l-1.86,-1a0.81,0.81 0,0 0,-0.74 0l-1.85,1a0.79,0.79 0,0 1,-1.15 -0.83l0.35,-2.07a0.76,0.76 0,0 0,-0.23 -0.7L45,217a0.79,0.79 0,0 1,0.44 -1.35l2.08,-0.3a0.77,0.77 0,0 0,0.59 -0.44l0.93,-1.88a0.79,0.79 0,0 1,1.42 0Z"
      fill="#f4eba3"/>
  <path
      d="M50.45,213.07l0.93,1.88a0.8,0.8 0,0 0,0.6 0.44l2.07,0.3a0.79,0.79 0,0 1,0.44 1.35L53,218.51a0.79,0.79 0,0 0,-0.23 0.7l0.36,2.07a0.79,0.79 0,0 1,-1.15 0.83l-1.86,-1a0.81,0.81 0,0 0,-0.74 0l-1.86,1a0.79,0.79 0,0 1,-1.15 -0.83l0.36,-2.07a0.79,0.79 0,0 0,-0.23 -0.7L45,217a0.79,0.79 0,0 1,0.44 -1.35l2.07,-0.3a0.79,0.79 0,0 0,0.6 -0.44l0.93,-1.88a0.79,0.79 0,0 1,1.42 0Z"
      fill="#ddd"/>
  <path
      d="M64.29,213.07l0.93,1.88a0.79,0.79 0,0 0,0.59 0.44l2.08,0.3a0.79,0.79 0,0 1,0.44 1.35l-1.5,1.47a0.76,0.76 0,0 0,-0.23 0.7l0.35,2.07a0.79,0.79 0,0 1,-1.15 0.83l-1.85,-1a0.81,0.81 0,0 0,-0.74 0l-1.86,1a0.79,0.79 0,0 1,-1.15 -0.83l0.36,-2.07a0.79,0.79 0,0 0,-0.23 -0.7L58.83,217a0.79,0.79 0,0 1,0.43 -1.35l2.08,-0.3a0.8,0.8 0,0 0,0.6 -0.44l0.93,-1.88a0.79,0.79 0,0 1,1.42 0Z"
      fill="#ddd"/>
  <path
      d="M78.12,213.07l0.93,1.88a0.8,0.8 0,0 0,0.6 0.44l2.08,0.3a0.79,0.79 0,0 1,0.44 1.35l-1.51,1.47a0.78,0.78 0,0 0,-0.22 0.7l0.35,2.07a0.79,0.79 0,0 1,-1.15 0.83l-1.86,-1a0.79,0.79 0,0 0,-0.73 0l-1.86,1a0.79,0.79 0,0 1,-1.15 -0.83l0.35,-2.07a0.78,0.78 0,0 0,-0.22 -0.7L72.66,217a0.79,0.79 0,0 1,0.44 -1.35l2.08,-0.3a0.8,0.8 0,0 0,0.6 -0.44l0.92,-1.88a0.79,0.79 0,0 1,1.42 0Z"
      fill="#ddd"/>
  <path
      d="M117.85,243.54h36.8a2.13,2.13 0,0 0,2.12 -2.12v-6.37a2.13,2.13 0,0 0,-2.12 -2.12h-36.8L111.94,238Z"
      fill="#ddd"/>
  <path
      d="M52.92,86.3m-12.25,0a12.25,12.25 0,1 1,24.5 0a12.25,12.25 0,1 1,-24.5 0"
      fill="#c1c8d3"/>
  <path
      d="M141.08,161.39m-14.3,0a14.3,14.3 0,1 1,28.6 0a14.3,14.3 0,1 1,-28.6 0"
      fill="#eef3fa"/>
  <path
      d="M155,164.55s-0.14,0.59 -0.23,0.88a14.3,14.3 0,1 1,-14.19 -18.33h0.47Z"
      fill="#d6e0ec"/>
  <path
      d="M149.46,160.24a5.45,5.45 0,0 0,-1.52 -3.54,4.73 4.73,0 0,0 -3.37,-1.43 4.51,4.51 0,0 0,-3.45 1.6,4.69 4.69,0 0,0 -6.9,-0.17 5.44,5.44 0,0 0,-1.51 3.54v0.17a5.52,5.52 0,0 0,1.85 4l6.31,5.89a0.31,0.31 0,0 0,0.25 0.08,0.28 0.28,0 0,0 0.17,-0.08s5.89,-5.47 6.31,-5.89a5.53,5.53 0,0 0,1.86 -4v-0.17Z"
      fill="#e12726"/>
  <path
      d="M145.61,32.21a1.8,1.8 0,0 1,-1.78 -1.51l-1,-5.22a0.06,0.06 0,0 0,-0.06 -0.06h-1a0.68,0.68 0,0 1,-0.7 -0.7,0.71 0.71,0 0,1 0.17,-0.47 0.73,0.73 0,0 1,0.53 -0.21h1.56a1,1 0,0 1,1 0.84l0.25,1.43h7.19a0.85,0.85 0,0 1,0.69 0.28,0.92 0.92,0 0,1 0.14,0.78L152,30.73a1.81,1.81 0,0 1,-1.78 1.48ZM145.28,30.27a0.76,0.76 0,0 0,0.76 0.65h4a0.77,0.77 0,0 0,0.76 -0.63l0.48,-2.56h-6.43Z"
      fill="#9ea5ad"/>
  <path
      d="M145.01,34.14m-1.26,0a1.26,1.26 0,1 1,2.52 0a1.26,1.26 0,1 1,-2.52 0"
      fill="#9ea5ad"/>
  <path
      d="M150.9,34.14m-1.26,0a1.26,1.26 0,1 1,2.52 0a1.26,1.26 0,1 1,-2.52 0"
      fill="#9ea5ad"/>
</svg>
