<?xml version="1.0" encoding="utf-8"?>
<!-- Generator: Adobe Illustrator 22.1.0, SVG Export Plug-In . SVG Version: 6.00 Build 0)  -->
<svg version="1.1" id="Capa_1" xmlns="http://www.w3.org/2000/svg" xmlns:xlink="http://www.w3.org/1999/xlink" x="0px" y="0px"
	 viewBox="0 0 156 137" style="enable-background:new 0 0 156 137;" xml:space="preserve">
<style type="text/css">
	.st0{clip-path:url(#SVGID_2_);}
	.st1{clip-path:url(#SVGID_4_);fill:#DCDCDC;}
	.st2{clip-path:url(#SVGID_6_);enable-background:new    ;}
	.st3{clip-path:url(#SVGID_8_);}
	.st4{clip-path:url(#SVGID_10_);}
	.st5{clip-path:url(#SVGID_12_);fill:#4A4A4A;}
	.st6{clip-path:url(#SVGID_14_);enable-background:new    ;}
	.st7{clip-path:url(#SVGID_16_);}
	.st8{clip-path:url(#SVGID_18_);}
	.st9{clip-path:url(#SVGID_20_);fill:#4A4A4A;}
	.st10{clip-path:url(#SVGID_22_);}
	.st11{clip-path:url(#SVGID_24_);fill:#4A4A4A;}
	.st12{clip-path:url(#SVGID_26_);}
	.st13{clip-path:url(#SVGID_28_);fill:#4A4A4A;}
	.st14{clip-path:url(#SVGID_30_);}
	.st15{clip-path:url(#SVGID_32_);fill:#4A4A4A;}
	.st16{clip-path:url(#SVGID_34_);}
	.st17{clip-path:url(#SVGID_36_);fill:#4A4A4A;}
	.st18{clip-path:url(#SVGID_38_);}
	.st19{clip-path:url(#SVGID_40_);fill:#4A4A4A;}
	.st20{clip-path:url(#SVGID_42_);enable-background:new    ;}
	.st21{clip-path:url(#SVGID_44_);}
	.st22{clip-path:url(#SVGID_46_);}
	.st23{clip-path:url(#SVGID_48_);fill:#9D9C9D;}
	.st24{clip-path:url(#SVGID_50_);}
	.st25{clip-path:url(#SVGID_52_);fill:#333333;}
	.st26{clip-path:url(#SVGID_54_);}
	.st27{clip-path:url(#SVGID_56_);fill:#D01F3D;}
	.st28{clip-path:url(#SVGID_58_);}
	.st29{clip-path:url(#SVGID_60_);fill:#F1727C;}
	.st30{clip-path:url(#SVGID_62_);}
	.st31{clip-path:url(#SVGID_64_);fill:#F1727C;}
	.st32{clip-path:url(#SVGID_66_);}
	.st33{clip-path:url(#SVGID_68_);fill:#F1727C;}
	.st34{clip-path:url(#SVGID_70_);}
	.st35{clip-path:url(#SVGID_72_);fill:#121313;}
	.st36{clip-path:url(#SVGID_74_);}
	.st37{clip-path:url(#SVGID_76_);fill:#F1727C;}
	.st38{clip-path:url(#SVGID_78_);fill:none;stroke:#F1727C;stroke-miterlimit:10;}
	.st39{clip-path:url(#SVGID_80_);}
	.st40{clip-path:url(#SVGID_82_);fill:#9D9D9D;}
	.st41{clip-path:url(#SVGID_84_);}
	.st42{clip-path:url(#SVGID_86_);fill:#F8A01C;}
	.st43{clip-path:url(#SVGID_88_);}
	.st44{clip-path:url(#SVGID_90_);fill:#C4862B;}
	.st45{clip-path:url(#SVGID_92_);}
	.st46{clip-path:url(#SVGID_94_);fill:#C4862B;}
	.st47{clip-path:url(#SVGID_96_);}
	.st48{clip-path:url(#SVGID_98_);fill:#C4862B;}
	.st49{clip-path:url(#SVGID_100_);}
	.st50{clip-path:url(#SVGID_102_);fill:#C4862B;}
	.st51{clip-path:url(#SVGID_104_);}
	.st52{clip-path:url(#SVGID_106_);fill:#FBCC10;}
	.st53{clip-path:url(#SVGID_108_);}
	.st54{clip-path:url(#SVGID_110_);fill:#FBCC10;}
	.st55{clip-path:url(#SVGID_112_);}
	.st56{clip-path:url(#SVGID_114_);fill:#FBCC10;}
	.st57{clip-path:url(#SVGID_116_);}
	.st58{clip-path:url(#SVGID_118_);fill:#FBCC10;}
</style>
<g>
	<defs>
		<path id="SVGID_1_" d="M155.3,120.9c0,5-34.8,9.1-77.6,9.1C34.8,130,0,126,0,120.9c0-5,34.8-9.1,77.6-9.1
			C120.5,111.9,155.3,115.9,155.3,120.9"/>
	</defs>
	<clipPath id="SVGID_2_">
		<use xlink:href="#SVGID_1_"  style="overflow:visible;"/>
	</clipPath>
	<g class="st0">
		<defs>
			<rect id="SVGID_3_" x="-110" y="-172" width="375" height="688"/>
		</defs>
		<clipPath id="SVGID_4_">
			<use xlink:href="#SVGID_3_"  style="overflow:visible;"/>
		</clipPath>
		<rect x="-5" y="106.9" class="st1" width="165.2" height="28.2"/>
	</g>
</g>
<g>
	<defs>
		<rect id="SVGID_5_" x="56.7" width="4" height="124.3"/>
	</defs>
	<clipPath id="SVGID_6_">
		<use xlink:href="#SVGID_5_"  style="overflow:visible;"/>
	</clipPath>
	<g class="st2">
		<g>
			<defs>
				<rect id="SVGID_7_" x="56" y="-1" width="5" height="126"/>
			</defs>
			<clipPath id="SVGID_8_">
				<use xlink:href="#SVGID_7_"  style="overflow:visible;"/>
			</clipPath>
			<g class="st3">
				<defs>
					<path id="SVGID_9_" d="M58.7,124.3c1.1,0,2-0.9,2-2V2c0-1.1-0.9-2-2-2c-1.1,0-2,0.9-2,2v120.4
						C56.7,123.4,57.6,124.3,58.7,124.3"/>
				</defs>
				<clipPath id="SVGID_10_">
					<use xlink:href="#SVGID_9_"  style="overflow:visible;"/>
				</clipPath>
				<g class="st4">
					<defs>
						<rect id="SVGID_11_" x="56" width="5" height="125"/>
					</defs>
					<clipPath id="SVGID_12_">
						<use xlink:href="#SVGID_11_"  style="overflow:visible;"/>
					</clipPath>
					<rect x="51.7" y="-5" class="st5" width="14" height="134.3"/>
				</g>
			</g>
		</g>
	</g>
</g>
<g>
	<defs>
		<rect id="SVGID_13_" x="91.2" width="4" height="124.3"/>
	</defs>
	<clipPath id="SVGID_14_">
		<use xlink:href="#SVGID_13_"  style="overflow:visible;"/>
	</clipPath>
	<g class="st6">
		<g>
			<defs>
				<rect id="SVGID_15_" x="91" y="-1" width="5" height="126"/>
			</defs>
			<clipPath id="SVGID_16_">
				<use xlink:href="#SVGID_15_"  style="overflow:visible;"/>
			</clipPath>
			<g class="st7">
				<defs>
					<path id="SVGID_17_" d="M93.2,124.3c1.1,0,2-0.9,2-2V2c0-1.1-0.9-2-2-2c-1.1,0-2,0.9-2,2v120.4
						C91.2,123.4,92.1,124.3,93.2,124.3"/>
				</defs>
				<clipPath id="SVGID_18_">
					<use xlink:href="#SVGID_17_"  style="overflow:visible;"/>
				</clipPath>
				<g class="st8">
					<defs>
						<rect id="SVGID_19_" x="91" width="5" height="125"/>
					</defs>
					<clipPath id="SVGID_20_">
						<use xlink:href="#SVGID_19_"  style="overflow:visible;"/>
					</clipPath>
					<rect x="86.2" y="-5" class="st9" width="14" height="134.3"/>
				</g>
			</g>
		</g>
	</g>
</g>
<g>
	<defs>
		<path id="SVGID_21_" d="M95.1,14.2c0-1.1-0.9-2-2-2H58.7c-1.1,0-2,0.9-2,2c0,1.1,0.9,2,2,2h34.5C94.3,16.2,95.1,15.3,95.1,14.2"/>
	</defs>
	<clipPath id="SVGID_22_">
		<use xlink:href="#SVGID_21_"  style="overflow:visible;"/>
	</clipPath>
	<g class="st10">
		<defs>
			<rect id="SVGID_23_" x="-110" y="-172" width="375" height="688"/>
		</defs>
		<clipPath id="SVGID_24_">
			<use xlink:href="#SVGID_23_"  style="overflow:visible;"/>
		</clipPath>
		<rect x="51.7" y="7.2" class="st11" width="48.4" height="14"/>
	</g>
</g>
<g>
	<defs>
		<path id="SVGID_25_" d="M95.1,36.8c0-1.1-0.9-2-2-2H58.7c-1.1,0-2,0.9-2,2c0,1.1,0.9,2,2,2h34.5C94.3,38.8,95.1,37.9,95.1,36.8"/>
	</defs>
	<clipPath id="SVGID_26_">
		<use xlink:href="#SVGID_25_"  style="overflow:visible;"/>
	</clipPath>
	<g class="st12">
		<defs>
			<rect id="SVGID_27_" x="-110" y="-172" width="375" height="688"/>
		</defs>
		<clipPath id="SVGID_28_">
			<use xlink:href="#SVGID_27_"  style="overflow:visible;"/>
		</clipPath>
		<rect x="51.7" y="29.8" class="st13" width="48.4" height="14"/>
	</g>
</g>
<g>
	<defs>
		<path id="SVGID_29_" d="M95.1,59.4c0-1.1-0.9-2-2-2H58.7c-1.1,0-2,0.9-2,2c0,1.1,0.9,2,2,2h34.5C94.3,61.4,95.1,60.5,95.1,59.4"/>
	</defs>
	<clipPath id="SVGID_30_">
		<use xlink:href="#SVGID_29_"  style="overflow:visible;"/>
	</clipPath>
	<g class="st14">
		<defs>
			<rect id="SVGID_31_" x="-110" y="-172" width="375" height="688"/>
		</defs>
		<clipPath id="SVGID_32_">
			<use xlink:href="#SVGID_31_"  style="overflow:visible;"/>
		</clipPath>
		<rect x="51.7" y="52.4" class="st15" width="48.4" height="14"/>
	</g>
</g>
<g>
	<defs>
		<path id="SVGID_33_" d="M95.1,82c0-1.1-0.9-2-2-2H58.7c-1.1,0-2,0.9-2,2c0,1.1,0.9,2,2,2h34.5C94.3,84,95.1,83.1,95.1,82"/>
	</defs>
	<clipPath id="SVGID_34_">
		<use xlink:href="#SVGID_33_"  style="overflow:visible;"/>
	</clipPath>
	<g class="st16">
		<defs>
			<rect id="SVGID_35_" x="-110" y="-172" width="375" height="688"/>
		</defs>
		<clipPath id="SVGID_36_">
			<use xlink:href="#SVGID_35_"  style="overflow:visible;"/>
		</clipPath>
		<rect x="51.7" y="75" class="st17" width="48.4" height="14"/>
	</g>
</g>
<g>
	<defs>
		<path id="SVGID_37_" d="M95.1,104.6c0-1.1-0.9-2-2-2H58.7c-1.1,0-2,0.9-2,2c0,1.1,0.9,2,2,2h34.5
			C94.3,106.6,95.1,105.7,95.1,104.6"/>
	</defs>
	<clipPath id="SVGID_38_">
		<use xlink:href="#SVGID_37_"  style="overflow:visible;"/>
	</clipPath>
	<g class="st18">
		<defs>
			<rect id="SVGID_39_" x="-110" y="-172" width="375" height="688"/>
		</defs>
		<clipPath id="SVGID_40_">
			<use xlink:href="#SVGID_39_"  style="overflow:visible;"/>
		</clipPath>
		<rect x="51.7" y="97.6" class="st19" width="48.4" height="14"/>
	</g>
</g>
<g>
	<defs>
		<rect id="SVGID_41_" x="86.5" y="121.9" width="51.4" height="14.8"/>
	</defs>
	<clipPath id="SVGID_42_">
		<use xlink:href="#SVGID_41_"  style="overflow:visible;"/>
	</clipPath>
	<g class="st20">
		<g>
			<defs>
				<rect id="SVGID_43_" x="85" y="121" width="55" height="17"/>
			</defs>
			<clipPath id="SVGID_44_">
				<use xlink:href="#SVGID_43_"  style="overflow:visible;"/>
			</clipPath>
			<g class="st21">
				<defs>
					<path id="SVGID_45_" d="M87.2,121.9c0,0-1.3,1.2-0.3,3.7c0.9,2.5,30.4,11.5,33.6,11.1c3.2-0.4,15.8-6.6,17.2-7.8
						c1.4-1.2-2.7-2.4-2.7-2.4L87.2,121.9z"/>
				</defs>
				<clipPath id="SVGID_46_">
					<use xlink:href="#SVGID_45_"  style="overflow:visible;"/>
				</clipPath>
				<g class="st22">
					<defs>
						<rect id="SVGID_47_" x="86" y="121" width="52" height="16"/>
					</defs>
					<clipPath id="SVGID_48_">
						<use xlink:href="#SVGID_47_"  style="overflow:visible;"/>
					</clipPath>
					<rect x="81.5" y="116.9" class="st23" width="61.4" height="24.8"/>
				</g>
			</g>
		</g>
	</g>
</g>
<g>
	<defs>
		<path id="SVGID_49_" d="M85.2,105.4c0,0,0.7,16.1,1.6,18.6c0.9,2.5,30.4,11.5,33.6,11.1c3.2-0.4,15.8-6.6,17.2-7.8
			c1.4-1.2,0.9-21,0.9-21L85.2,105.4z"/>
	</defs>
	<clipPath id="SVGID_50_">
		<use xlink:href="#SVGID_49_"  style="overflow:visible;"/>
	</clipPath>
	<g class="st24">
		<defs>
			<rect id="SVGID_51_" x="-110" y="-172" width="375" height="688"/>
		</defs>
		<clipPath id="SVGID_52_">
			<use xlink:href="#SVGID_51_"  style="overflow:visible;"/>
		</clipPath>
		<rect x="80.2" y="100.4" class="st25" width="63.4" height="39.7"/>
	</g>
</g>
<g>
	<defs>
		<path id="SVGID_53_" d="M94.8,94.6c0,0,42.4,5.4,44.3,7.3c1.2,1.2,1.5,5.5-0.5,6.9c-2,1.5-13.8,4.9-17.5,5.2
			c-3.8,0.4-35-4.8-37.5-7.1c-1.5-1.4-1.4-6.4,0-7.6C86,97.5,92.8,94.7,94.8,94.6"/>
	</defs>
	<clipPath id="SVGID_54_">
		<use xlink:href="#SVGID_53_"  style="overflow:visible;"/>
	</clipPath>
	<g class="st26">
		<defs>
			<rect id="SVGID_55_" x="-110" y="-172" width="375" height="688"/>
		</defs>
		<clipPath id="SVGID_56_">
			<use xlink:href="#SVGID_55_"  style="overflow:visible;"/>
		</clipPath>
		<rect x="77.5" y="89.6" class="st27" width="67.5" height="29.4"/>
	</g>
</g>
<g>
	<defs>
		<path id="SVGID_57_" d="M115.8,107.4c-5.2-0.4-9.1-1.3-13.4-2.2c-3.3-0.6-14.7-3-16.7-3.9c-0.3-0.1-0.8,0.7-0.5,0.8
			c5.7,1.9,11.1,3.2,17,4.3c4.2,0.8,9.1,1.9,13.6,2.1C116.9,108.5,117,107.5,115.8,107.4"/>
	</defs>
	<clipPath id="SVGID_58_">
		<use xlink:href="#SVGID_57_"  style="overflow:visible;"/>
	</clipPath>
	<g class="st28">
		<defs>
			<rect id="SVGID_59_" x="-110" y="-172" width="375" height="688"/>
		</defs>
		<clipPath id="SVGID_60_">
			<use xlink:href="#SVGID_59_"  style="overflow:visible;"/>
		</clipPath>
		<rect x="80.1" y="96.3" class="st29" width="41.5" height="17.2"/>
	</g>
</g>
<g>
	<defs>
		<path id="SVGID_61_" d="M137,103.8l-13.7,4.6c-0.2,0.1-0.5-0.1-0.6-0.3c-0.1-0.2,0.1-0.5,0.3-0.6l13.7-4.6
			c0.2-0.1,0.5,0.1,0.6,0.3C137.3,103.5,137.2,103.8,137,103.8"/>
	</defs>
	<clipPath id="SVGID_62_">
		<use xlink:href="#SVGID_61_"  style="overflow:visible;"/>
	</clipPath>
	<g class="st30">
		<defs>
			<rect id="SVGID_63_" x="-110" y="-172" width="375" height="688"/>
		</defs>
		<clipPath id="SVGID_64_">
			<use xlink:href="#SVGID_63_"  style="overflow:visible;"/>
		</clipPath>
		<rect x="117.6" y="97.9" class="st31" width="24.7" height="15.5"/>
	</g>
</g>
<g>
	<defs>
		<path id="SVGID_65_" d="M125,95.6c0-3.5-0.3-7.7-3.3-8.4c-4-0.9-21.7-3.4-23.2-2.6c-1.5,0.8-3.5,2.1-3.5,6c0,4.4,0.2,7.1,0.2,7.1
			s0.2,1.5,2.3,1.5c2.1,0,2.9-1,2.9-1s-0.5-6.3,0-7.2c0.4-0.8,0.9-1.6,2.5-1.7c5.2,0,13,1.4,14.3,1.8c1.9,0.6,1.8,2.9,1.8,5.2
			c0,3.3,0.1,6.4,0.1,6.4s0,1.5,3.1,1.5c2.5,0,2.8-1.7,2.8-1.7S125,99.3,125,95.6"/>
	</defs>
	<clipPath id="SVGID_66_">
		<use xlink:href="#SVGID_65_"  style="overflow:visible;"/>
	</clipPath>
	<g class="st32">
		<defs>
			<rect id="SVGID_67_" x="-110" y="-172" width="375" height="688"/>
		</defs>
		<clipPath id="SVGID_68_">
			<use xlink:href="#SVGID_67_"  style="overflow:visible;"/>
		</clipPath>
		<rect x="90" y="79.5" class="st33" width="40" height="29.7"/>
	</g>
</g>
<g>
	<defs>
		<path id="SVGID_69_" d="M119.8,133.3c-0.3,0-0.5-0.2-0.5-0.5v-16c0-0.3,0.2-0.5,0.5-0.5c0.3,0,0.5,0.2,0.5,0.5v16
			C120.3,133,120.1,133.3,119.8,133.3"/>
	</defs>
	<clipPath id="SVGID_70_">
		<use xlink:href="#SVGID_69_"  style="overflow:visible;"/>
	</clipPath>
	<g class="st34">
		<defs>
			<rect id="SVGID_71_" x="-110" y="-172" width="375" height="688"/>
		</defs>
		<clipPath id="SVGID_72_">
			<use xlink:href="#SVGID_71_"  style="overflow:visible;"/>
		</clipPath>
		<rect x="114.3" y="111.3" class="st35" width="11" height="27"/>
	</g>
</g>
<g>
	<defs>
		<path id="SVGID_73_" d="M119.8,112.8c-0.3,0-0.5-0.2-0.5-0.5v-4c0-0.3,0.2-0.5,0.5-0.5c0.3,0,0.5,0.2,0.5,0.5v4
			C120.3,112.6,120.1,112.8,119.8,112.8"/>
	</defs>
	<clipPath id="SVGID_74_">
		<use xlink:href="#SVGID_73_"  style="overflow:visible;"/>
	</clipPath>
	<g class="st36">
		<defs>
			<rect id="SVGID_75_" x="-110" y="-172" width="375" height="688"/>
		</defs>
		<clipPath id="SVGID_76_">
			<use xlink:href="#SVGID_75_"  style="overflow:visible;"/>
		</clipPath>
		<rect x="114.3" y="102.8" class="st37" width="11" height="15"/>
	</g>
</g>
<g>
	<defs>
		<rect id="SVGID_77_" x="-110" y="-172" width="375" height="688"/>
	</defs>
	<clipPath id="SVGID_78_">
		<use xlink:href="#SVGID_77_"  style="overflow:visible;"/>
	</clipPath>
	<path class="st38" d="M94.1,99.3c0,0,2.9,2.5,7,0.2"/>
</g>
<g>
	<defs>
		<path id="SVGID_79_" d="M19.3,129.2c3-1.8,42.9-5.3,46.5-5.8c0.5-0.1,3.2,0,3,0.5C64.7,138.6,21.9,132.2,19.3,129.2
			C19,128.7,19.3,129.2,19.3,129.2"/>
	</defs>
	<clipPath id="SVGID_80_">
		<use xlink:href="#SVGID_79_"  style="overflow:visible;"/>
	</clipPath>
	<g class="st39">
		<defs>
			<rect id="SVGID_81_" x="-110" y="-172" width="375" height="688"/>
		</defs>
		<clipPath id="SVGID_82_">
			<use xlink:href="#SVGID_81_"  style="overflow:visible;"/>
		</clipPath>
		<rect x="14.2" y="118.3" class="st40" width="59.7" height="19.8"/>
	</g>
</g>
<g>
	<defs>
		<path id="SVGID_83_" d="M65.5,119c0,0,7.4,3.9,1.4,7.7c-3.8,2.4-18.2,8.9-48,2.1c-1.1-0.3-1.7-3.7-0.4-5.6
			c0.6-6,1.3-15.7,5.7-20.5c2.5-2.7,6-4.5,10-5.5c0-2.5,7.8-4.2,10.3-0.5c5.1,0.7,9.9,2.6,13.2,6C64.1,109.2,65.5,119,65.5,119"/>
	</defs>
	<clipPath id="SVGID_84_">
		<use xlink:href="#SVGID_83_"  style="overflow:visible;"/>
	</clipPath>
	<g class="st41">
		<defs>
			<rect id="SVGID_85_" x="-110" y="-172" width="375" height="688"/>
		</defs>
		<clipPath id="SVGID_86_">
			<use xlink:href="#SVGID_85_"  style="overflow:visible;"/>
		</clipPath>
		<rect x="12.7" y="89.6" class="st42" width="61.5" height="47.3"/>
	</g>
</g>
<g>
	<defs>
		<path id="SVGID_87_" d="M64.3,119.4c-18,8.4-39.3,6.2-43.5,5.2c-0.4-0.1-0.7-0.2-1.5-0.5c1.4,2,34.6,5.6,45.4-4.2
			C65,119.7,64.6,119.2,64.3,119.4"/>
	</defs>
	<clipPath id="SVGID_88_">
		<use xlink:href="#SVGID_87_"  style="overflow:visible;"/>
	</clipPath>
	<g class="st43">
		<defs>
			<rect id="SVGID_89_" x="-110" y="-172" width="375" height="688"/>
		</defs>
		<clipPath id="SVGID_90_">
			<use xlink:href="#SVGID_89_"  style="overflow:visible;"/>
		</clipPath>
		<rect x="14.3" y="114.4" class="st44" width="55.5" height="17.1"/>
	</g>
</g>
<g>
	<defs>
		<path id="SVGID_91_" d="M50,110.9c-0.6-4.4-2.6-8.2-4.7-12.1c-0.1-0.1,0.1-0.3,0.2-0.2c5.7,5.4,8.2,15.1,5.4,22.4
			c-0.1,0.2-0.4,0.1-0.4-0.1C50.1,117.6,50.4,114.2,50,110.9"/>
	</defs>
	<clipPath id="SVGID_92_">
		<use xlink:href="#SVGID_91_"  style="overflow:visible;"/>
	</clipPath>
	<g class="st45">
		<defs>
			<rect id="SVGID_93_" x="-110" y="-172" width="375" height="688"/>
		</defs>
		<clipPath id="SVGID_94_">
			<use xlink:href="#SVGID_93_"  style="overflow:visible;"/>
		</clipPath>
		<rect x="40.3" y="93.6" class="st46" width="16.8" height="32.5"/>
	</g>
</g>
<g>
	<defs>
		<path id="SVGID_95_" d="M31.7,101.5c-0.1-0.2,0.2-0.5,0.4-0.3c6.5,4.4,9.2,13.9,8.8,22.5c0,0.2-0.9,0.2-0.9,0.1
			c-0.3-4.5-1-8.3-1.9-11.5C36.8,107.5,34.4,105.6,31.7,101.5"/>
	</defs>
	<clipPath id="SVGID_96_">
		<use xlink:href="#SVGID_95_"  style="overflow:visible;"/>
	</clipPath>
	<g class="st47">
		<defs>
			<rect id="SVGID_97_" x="-110" y="-172" width="375" height="688"/>
		</defs>
		<clipPath id="SVGID_98_">
			<use xlink:href="#SVGID_97_"  style="overflow:visible;"/>
		</clipPath>
		<rect x="26.6" y="96.1" class="st48" width="19.2" height="32.8"/>
	</g>
</g>
<g>
	<defs>
		<path id="SVGID_99_" d="M49.8,101.1c0,0,0.2-0.2,0.4-0.1c3.5,4.3,6.3,12.3,6.1,19.7c0,0.1-0.3,0.2-0.3,0.1
			c-0.1-5.1-1.5-10.4-2-11.6C52.4,105.1,51.4,103.3,49.8,101.1"/>
	</defs>
	<clipPath id="SVGID_100_">
		<use xlink:href="#SVGID_99_"  style="overflow:visible;"/>
	</clipPath>
	<g class="st49">
		<defs>
			<rect id="SVGID_101_" x="-110" y="-172" width="375" height="688"/>
		</defs>
		<clipPath id="SVGID_102_">
			<use xlink:href="#SVGID_101_"  style="overflow:visible;"/>
		</clipPath>
		<rect x="44.8" y="96" class="st50" width="16.5" height="29.8"/>
	</g>
</g>
<g>
	<defs>
		<path id="SVGID_103_" d="M65.6,121.6c0.4-0.4,1.2,0.4,0.9,1.1c-3.8,9.2-36.9,8.4-44.4,4.6C47.1,128.5,59.4,127.9,65.6,121.6"/>
	</defs>
	<clipPath id="SVGID_104_">
		<use xlink:href="#SVGID_103_"  style="overflow:visible;"/>
	</clipPath>
	<g class="st51">
		<defs>
			<rect id="SVGID_105_" x="-110" y="-172" width="375" height="688"/>
		</defs>
		<clipPath id="SVGID_106_">
			<use xlink:href="#SVGID_105_"  style="overflow:visible;"/>
		</clipPath>
		<rect x="17.2" y="116.5" class="st52" width="54.5" height="18.4"/>
	</g>
</g>
<g>
	<defs>
		<path id="SVGID_107_" d="M34.2,97.3c-0.9-2.7,7.3-4.1,10.2-0.9c3.5,3.8,10.2,11,10.2,24.2c0,2.8-8.5,3.7-9.6,1.3
			c-0.5-1.1-1.4-6.8-3.5-11.7C38.9,104.4,34.8,99,34.2,97.3"/>
	</defs>
	<clipPath id="SVGID_108_">
		<use xlink:href="#SVGID_107_"  style="overflow:visible;"/>
	</clipPath>
	<g class="st53">
		<defs>
			<rect id="SVGID_109_" x="-110" y="-172" width="375" height="688"/>
		</defs>
		<clipPath id="SVGID_110_">
			<use xlink:href="#SVGID_109_"  style="overflow:visible;"/>
		</clipPath>
		<rect x="29.1" y="89.5" class="st54" width="30.5" height="38.6"/>
	</g>
</g>
<g>
	<defs>
		<path id="SVGID_111_" d="M54,104.7c-0.1-1.7,1.9-1.8,3.1-0.4c1.5,1.7,4.9,6.3,4.3,14.3c-0.1,1.7-2.7,2-3,0.5
			c-0.1-0.7-0.1-5-1.3-7.8C55.4,107.5,54.1,105.8,54,104.7"/>
	</defs>
	<clipPath id="SVGID_112_">
		<use xlink:href="#SVGID_111_"  style="overflow:visible;"/>
	</clipPath>
	<g class="st55">
		<defs>
			<rect id="SVGID_113_" x="-110" y="-172" width="375" height="688"/>
		</defs>
		<clipPath id="SVGID_114_">
			<use xlink:href="#SVGID_113_"  style="overflow:visible;"/>
		</clipPath>
		<rect x="49" y="98.3" class="st56" width="17.4" height="26.7"/>
	</g>
</g>
<g>
	<defs>
		<path id="SVGID_115_" d="M27.5,105.2c-0.1-2.1,2.3-2.3,3.8-0.5c1.8,2.1,6.2,7.8,5.4,17.7c-0.2,2.1-3.4,2.5-3.7,0.6
			c-0.1-0.9-0.2-6.2-1.7-9.7C29.3,108.6,27.6,106.5,27.5,105.2"/>
	</defs>
	<clipPath id="SVGID_116_">
		<use xlink:href="#SVGID_115_"  style="overflow:visible;"/>
	</clipPath>
	<g class="st57">
		<defs>
			<rect id="SVGID_117_" x="-110" y="-172" width="375" height="688"/>
		</defs>
		<clipPath id="SVGID_118_">
			<use xlink:href="#SVGID_117_"  style="overflow:visible;"/>
		</clipPath>
		<rect x="22.5" y="98.5" class="st58" width="19.3" height="30.7"/>
	</g>
</g>
</svg>
