<?xml version="1.0" encoding="UTF-8"?>
<svg width="846px" height="208px" viewBox="0 0 846 208" version="1.1" xmlns="http://www.w3.org/2000/svg" xmlns:xlink="http://www.w3.org/1999/xlink">
    <!-- Generator: Sketch 54.1 (76490) - https://sketchapp.com -->
    <title>icon/Express</title>
    <desc>Created with Sketch.</desc>
    <g id="Page-1" stroke="none" stroke-width="1" fill="none" fill-rule="evenodd">
        <g id="icon/Express" transform="translate(-18.000000, -19.000000)">
            <g id="icon/telmex">
                <rect id="bounds" x="0" y="0" width="886" height="246"></rect>
                <g id="Group" transform="translate(18.205479, 19.421053)" fill="#009966">
                    <path d="M194.163932,117.04655 C199.174049,113.766027 203.843901,110.755981 208.44358,107.621854 C208.887473,107.319242 209.094732,106.244481 209.074332,105.541065 C208.881761,98.9255678 208.624727,92.3118556 208.366062,85.6990361 C208.251825,82.7612946 208.089445,79.8271237 207.931961,76.51268 C203.328202,79.4156078 198.986373,82.1328625 194.679631,84.9161739 C194.374455,85.1134516 194.185964,85.7900873 194.184332,86.2453435 C194.157404,96.3573872 194.163932,106.470324 194.163932,117.04655 L194.163932,117.04655 Z M203.367369,68.9706022 C198.294422,65.7713115 193.534812,62.7728692 188.777649,59.7681783 C170.142301,47.9975737 151.511848,36.2153646 132.852837,24.4876077 C132.13967,24.0394928 130.929572,23.6627906 130.327379,24.018069 C126.093259,26.5139442 121.958689,29.2106677 117.536079,32.004691 C118.304732,32.526004 118.85715,32.9223447 119.42752,33.2838717 C124.892137,36.7456042 130.359202,40.203766 135.826267,43.6601425 C153.285789,54.6987665 170.742046,65.7436391 188.223599,76.7429861 C188.82416,77.1205809 189.862086,77.4026612 190.377786,77.0929085 C194.658416,74.5282985 198.864792,71.8128292 203.367369,68.9706022 L203.367369,68.9706022 Z M139.464722,18.1104502 C140.314973,18.6853228 140.877183,19.0870194 141.45816,19.4539023 C147.810564,23.4655129 154.167047,27.4690895 160.521898,31.4780221 C176.936965,41.8337618 193.363456,52.1680776 209.745068,62.5871961 C211.184456,63.5030644 212.222383,63.4798553 213.614444,62.5604163 C218.032159,59.6423133 222.534736,56.8777477 226.998962,54.04534 C227.548933,53.6972029 228.070344,53.2937209 228.816149,52.767052 C227.854925,52.1243373 227.119727,51.6101656 226.364946,51.1325929 C217.194964,45.32763 208.020902,39.5271303 198.847657,33.7275234 C186.910687,26.1800896 174.964742,18.6496164 163.040012,11.0798662 C159.439093,8.79376589 155.700273,8.22692728 151.976141,10.336281 C147.821171,12.6884381 143.82695,15.3798056 139.464722,18.1104502 L139.464722,18.1104502 Z M84.9352348,52.7795492 C85.2444912,53.0535956 85.3864717,53.2169522 85.5570115,53.324964 C108.949522,68.1020448 132.338769,82.8835889 155.76392,97.5972909 C156.339185,97.9588179 157.461974,97.8534841 158.074775,97.4741039 C165.45776,92.9090446 172.795051,88.2538268 180.139686,83.6146768 C180.474238,83.4031165 180.774519,83.1281775 181.167005,82.8246734 C180.785126,82.550627 180.512589,82.3346035 180.221284,82.1507157 C157.011553,67.4629008 133.794477,52.7875831 110.60433,38.0631692 C109.452166,37.3311886 108.644346,37.5963084 107.632531,38.2417011 C100.71139,42.6585789 93.764137,47.0245752 86.8307561,51.4173512 C86.2000036,51.8172625 85.6100502,52.2921572 84.9352348,52.7795492 L84.9352348,52.7795492 Z M161.048205,197.152004 C162.255039,196.464656 163.150985,196.000473 164.006948,195.459522 C184.893585,182.257984 205.761454,169.019848 226.670938,155.861158 C231.046222,153.106412 233.137579,149.162644 233.129419,143.652258 C233.089436,116.951036 233.113099,90.2489201 233.104124,63.5476974 C233.104124,62.7094904 232.98907,61.8712834 232.90584,60.7233236 C227.355545,64.2332597 222.117771,67.511997 216.930587,70.8853562 C216.497301,71.1674366 216.201101,72.0824123 216.197021,72.7063811 C216.181517,75.0094419 216.311258,77.314288 216.394488,79.6173488 C216.751071,89.426781 217.099494,99.2353206 217.477293,109.042967 C217.549099,110.888094 217.137845,112.492203 215.650314,113.472343 C207.791612,118.647981 199.919854,123.797732 192.025249,128.909098 C190.536902,129.87317 188.74909,129.817826 187.702188,128.417243 C186.761363,127.159486 186.023717,125.309004 186.00087,123.705788 C185.850729,113.519653 185.926615,103.328163 185.920088,93.138458 C185.919272,92.3645225 185.860521,91.590587 185.819722,90.6024132 C185.118795,90.9862567 184.633287,91.2183481 184.177155,91.5057843 C177.052834,95.9967529 169.957889,100.543066 162.790322,104.94834 C161.384389,105.812434 161.013118,106.799715 161.016382,108.468095 C161.060445,137.10371 161.048205,165.738433 161.048205,194.374048 L161.048205,197.152004 Z M72.1023194,83.8583727 L69.5393267,83.8583727 L6.30904653,83.8583727 C5.83333027,83.8583727 5.35679802,83.8646214 4.88108176,83.8565874 C1.94763413,83.8083838 0.0635366058,82.0837662 0.00152213564,79.3923986 C-0.0621242942,76.6412229 1.87501192,74.7568193 4.90964105,74.752356 C19.867368,74.7336102 34.825095,74.7434294 49.782822,74.7425367 L69.7710649,74.7425367 L72.1757576,74.7425367 L72.1757576,59.8056699 C71.6094676,59.8056699 70.8848775,59.8101332 70.1611033,59.8047773 C62.1383892,59.7494324 54.1156752,59.7101554 46.093777,59.6262454 C43.2443753,59.5967877 41.6589265,58.5023875 41.1024282,56.3448301 C40.4382206,53.7695083 41.556929,51.5039392 43.9249026,50.846942 C44.8314562,50.5961047 45.8057362,50.5479011 46.7473769,50.5541497 C55.7223395,50.6130652 64.6964861,50.7433935 73.6706327,50.7228623 C74.5796343,50.7201844 75.6028731,50.0221248 76.3731581,49.366913 C78.6089429,47.4637635 80.5387353,45.0366231 82.9507718,43.4896446 C100.242201,32.3992464 117.62502,21.4775608 134.977648,10.4996377 C135.500691,10.1684611 136.009047,9.80782677 136.510058,9.00621878 L134.487244,9.00621878 C117.286389,9.00532612 100.084717,9.00978942 82.8838614,9.00175549 C80.2490624,8.99997017 78.7403157,7.90289198 78.1976891,5.67570722 C77.5587768,3.05485973 79.0846592,0.467040641 81.5277029,0.0555247385 C81.928349,-0.0123173626 82.3412348,0.00107252577 82.7492248,0.00107252577 C107.224541,0.00910645879 131.700673,0.0198183695 156.176805,0.0287449617 C160.064133,0.029637621 163.67158,1.05887371 167.059529,3.2066118 C188.401482,16.7366477 209.763835,30.2282992 231.12374,43.7226287 C238.057937,48.1038002 241.391215,54.7746425 241.405903,63.4137985 C241.449966,90.1159139 241.44099,116.817137 241.409983,143.519252 C241.401007,152.429776 237.946964,159.165783 230.771237,163.665678 C209.607167,176.936843 188.486344,190.290132 167.366337,203.646992 C163.621806,206.015217 159.671647,207.168533 155.326554,207.157821 C131.938123,207.09712 108.550508,207.131041 85.1620772,207.125685 C81.8320634,207.124792 79.9561257,205.522469 79.8875834,202.677564 C79.8353607,200.505724 81.2062068,198.608823 83.1808781,198.259794 C84.0466328,198.107149 84.9425787,198.122324 85.8246529,198.122324 C102.278071,198.11429 118.731489,198.116968 135.184907,198.116968 L136.926208,198.116968 C136.072693,197.463542 135.639408,197.07702 135.16206,196.774409 C118.753521,186.385641 102.349061,175.989731 85.9095148,165.658986 C84.971138,165.068938 83.7479841,164.762756 82.6562031,164.758293 C66.6793172,164.701163 50.7016154,164.718123 34.7239135,164.71366 C34.0450183,164.71366 33.3538833,164.762756 32.6880438,164.648496 C30.5265131,164.278042 29.0993643,162.296339 29.2095216,159.910261 C29.3164149,157.602737 30.8047622,155.929001 32.9760847,155.723689 C33.651716,155.659417 34.3346911,155.68709 35.0144024,155.686197 C47.4564634,155.684412 59.8985245,155.685305 72.3405855,155.685305 L74.4825327,155.685305 C73.7946617,152.841292 72.7004327,150.176705 72.5780357,147.460343 C72.2434839,140.041452 72.3185541,132.599352 72.2336922,125.167071 C72.2239004,124.293158 72.2328762,123.420137 72.2328762,122.326629 L69.8404232,122.326629 C61.7491668,122.326629 53.6587264,122.331093 45.568286,122.323951 C42.6707415,122.320381 40.8356028,120.529706 40.8576342,117.764248 C40.8772177,115.190712 42.7596833,113.336658 45.5095355,113.326839 C53.5999759,113.297381 61.6912323,113.315235 69.7816727,113.314342 L72.1023194,113.314342 L72.1023194,83.8583727 Z" id="Fill-1"></path>
                    <path d="M331.21883,144.102693 L331.21883,155.368421 L272.939961,155.368421 L272.939961,55.0199938 L331.21883,55.0199938 L331.21883,66.2857216 L284.673962,66.2857216 L284.673962,98.4834498 L328.806841,98.4834498 L328.806841,109.610095 L284.673962,109.610095 L284.673962,144.102693 L331.21883,144.102693 Z M346.342653,155.368421 L378.545965,104.881271 L346.733786,55.0199938 L360.879776,55.0199938 L385.651554,94.9368318 L386.694577,94.9368318 L411.857489,55.0199938 L425.221211,55.0199938 L392.626766,105.437603 L424.504134,155.368421 L410.423333,155.368421 L385.781932,115.799291 L384.73891,115.799291 L359.641187,155.368421 L346.342653,155.368421 Z M443.082968,55.0199938 L478.610913,55.0199938 C496.407481,55.0199938 508.728181,68.3719675 508.728181,87.4958882 C508.728181,106.272101 496.146725,119.554533 478.480536,119.554533 L454.816968,119.554533 L454.816968,155.368421 L443.082968,155.368421 L443.082968,55.0199938 Z M454.816968,66.1466386 L454.816968,108.427889 L475.547036,108.427889 C488.910758,108.427889 496.668236,100.77832 496.668236,87.4958882 C496.668236,73.7266653 489.171514,66.1466386 475.547036,66.1466386 L454.816968,66.1466386 Z M539.627716,66.1466386 L539.627716,104.533563 L562.769772,104.533563 C574.829717,104.533563 581.674551,97.6489515 581.674551,85.3401007 C581.674551,73.3094161 574.373395,66.1466386 562.248261,66.1466386 L539.627716,66.1466386 Z M539.627716,115.660208 L539.627716,155.368421 L527.893715,155.368421 L527.893715,55.0199938 L563.812794,55.0199938 C581.935306,55.0199938 593.799684,66.8420539 593.799684,84.9228516 C593.799684,98.900699 586.694095,109.749178 574.894906,113.713045 L596.667996,155.368421 L582.913139,155.368421 L562.769772,115.660208 L539.627716,115.660208 Z M673.395321,144.102693 L673.395321,155.368421 L615.116452,155.368421 L615.116452,55.0199938 L673.395321,55.0199938 L673.395321,66.2857216 L626.850452,66.2857216 L626.850452,98.4834498 L670.983332,98.4834498 L670.983332,109.610095 L626.850452,109.610095 L626.850452,144.102693 L673.395321,144.102693 Z M690.148866,129.151264 L702.013244,129.151264 C703.447399,139.652035 712.8346,146.328022 726.198322,146.328022 C738.844967,146.328022 748.166979,139.026162 748.166979,129.081723 C748.166979,120.528115 742.299979,115.103875 729.327389,111.626799 L717.267444,108.288806 C700.253144,103.699065 692.886799,95.4931641 692.886799,81.2371505 C692.886799,64.1994757 706.250522,52.6555818 726.133134,52.6555818 C744.320834,52.6555818 757.880124,64.1994757 758.857957,80.4026521 L747.058768,80.4026521 C745.429045,70.1105058 737.476001,63.9908512 725.742,63.9908512 C713.225733,63.9908512 704.946744,70.666838 704.946744,80.8199013 C704.946744,88.6780942 710.096666,93.1982936 723.069256,96.7449116 L732.912778,99.5265728 C752.404257,104.742188 760.226924,112.809005 760.226924,127.551809 C760.226924,145.980315 746.602445,157.732833 725.090111,157.732833 C705.142311,157.732833 691.387455,146.467105 690.148866,129.151264 Z M775.220369,129.151264 L787.084747,129.151264 C788.518903,139.652035 797.906103,146.328022 811.269826,146.328022 C823.91647,146.328022 833.238482,139.026162 833.238482,129.081723 C833.238482,120.528115 827.371482,115.103875 814.398892,111.626799 L802.338947,108.288806 C785.324647,103.699065 777.958302,95.4931641 777.958302,81.2371505 C777.958302,64.1994757 791.322025,52.6555818 811.204637,52.6555818 C829.392337,52.6555818 842.951627,64.1994757 843.92946,80.4026521 L832.130271,80.4026521 C830.500548,70.1105058 822.547504,63.9908512 810.813503,63.9908512 C798.297236,63.9908512 790.018247,70.666838 790.018247,80.8199013 C790.018247,88.6780942 795.168169,93.1982936 808.140759,96.7449116 L817.984281,99.5265728 C837.47576,104.742188 845.298427,112.809005 845.298427,127.551809 C845.298427,145.980315 831.673949,157.732833 810.161614,157.732833 C790.213814,157.732833 776.458958,146.467105 775.220369,129.151264 Z" id="EXPRESS" fill-rule="nonzero"></path>
                </g>
            </g>
        </g>
    </g>
</svg>