<?xml version="1.0" encoding="UTF-8"?>
<svg width="68px" height="44px" viewBox="0 0 68 44" version="1.1" xmlns="http://www.w3.org/2000/svg" xmlns:xlink="http://www.w3.org/1999/xlink">
    <!-- Generator: Sketch 54.1 (76490) - https://sketchapp.com -->
    <title>Envio gratis</title>
    <desc>Created with Sketch.</desc>
    <g id="Mi-cuenta" stroke="none" stroke-width="1" fill="none" fill-rule="evenodd">
        <g id="Envio-gratis" fill-rule="nonzero">
            <polygon id="Fill-1" fill="#000000" points="39 7.01683659 39.0279264 37 45.7054355 36.9943878 45.6992296 32.9956973 43.4713246 32.9956973 43.4496041 11.0155271 59.6872459 11.0014966 63.5255724 21.3195211 63.5317783 32.9844729 59.0883801 32.987279 59.091483 36.9831634 68 36.9803573 67.9844853 20.6600879 62.8925744 7"></polygon>
            <path d="M51.9953068,31.2663986 C49.5172958,31.2663986 47.4992187,33.1774821 47.4992187,35.5178885 C47.5023475,37.8612763 49.5235534,39.7693783 52.0046932,39.7663969 C54.4827042,39.7634155 56.5007813,37.8553134 56.4976525,35.5119256 C56.4976525,33.1715192 54.4764466,31.2663986 51.9953068,31.2663986 M52.007822,43.9999983 C47.0486713,44.0029797 43.0062594,40.1927384 43.0000018,35.5059628 C42.996873,30.82515 47.0330273,27.0059646 51.992178,27.0000017 C56.9513287,26.9970203 60.9968694,30.810243 60.9999982,35.4940372 C61.003127,40.1778314 56.9669727,43.9970168 52.007822,43.9999983" id="Fill-2" fill="#000000"></path>
            <polygon id="Fill-4" fill="#000000" points="43 36.9672131 22.5453763 36.9836066 22.5425278 33.0901639 38.9124934 33.0765027 38.8925543 3.89617486 4.10174881 3.92349727 4.12738474 33.1010929 10.254372 33.0983607 10.2572205 36.9918033 0.0313328034 37 0 0.0300546448 42.9686672 0"></polygon>
            <path d="M15.9984347,31.2529894 C13.5172952,31.2529894 11.4992183,33.1660853 11.5023471,35.5089563 C11.5023471,37.8548118 13.5235528,39.7619386 16.0046923,39.7619386 C18.482703,39.7589541 20.5007799,37.8458582 20.4976511,35.5029872 C20.4976511,33.1601162 18.4764454,31.2529894 15.9984347,31.2529894 M16.0078211,43.9999983 C11.0486709,44.0029828 7.00625942,40.1857446 7.00000182,35.4970181 C6.99687302,30.8082915 11.0330268,27.0029915 15.9921771,27.000007 C20.9544561,26.9940379 24.9968676,30.8112761 25,35.5 C25.0031252,40.1887291 20.9669713,43.9970137 16.0078211,43.9999983" id="Fill-7" fill="#000000"></path>
            <polygon id="Fill-10" fill="#CA0613" points="21.3267496 24 11 14.1592874 14.1029017 11.1897267 21.3237015 18.0814597 32.8970983 7 36 9.94897959"></polygon>
        </g>
    </g>
</svg>