<svg xmlns="http://www.w3.org/2000/svg" viewBox="0 0 25 25">
    <g fill="none" fill-rule="evenodd">
        <g fill="#333" fill-rule="nonzero">
            <g>
                <g>
                    <path d="M2.813 9.792v1.458c0 .208.208.313.416.313s.417-.105.417-.313V9.792c0-.209-.208-.313-.417-.313-.208 0-.417.104-.417.313M4.896 9.792v1.458c0 .208.208.313.417.313.208 0 .416-.105.416-.313V9.792c0-.209-.208-.313-.417-.313-.208 0-.416.104-.416.313M6.98 9.792v1.458c0 .208.207.313.416.313.208 0 .417-.105.417-.313V9.792c0-.209-.209-.313-.417-.313s-.417.104-.417.313" transform="translate(-16 -134) translate(16 134) translate(3.125 4.167)"/>
                    <g>
                        <path d="M1.042 3.854v-1.25c0-.729.52-1.25 1.25-1.25h14.166c.313 0 .625.104.834.417.312.208.416.52.416.833v1.25H1.042zm17.708-1.25c0-1.25-1.042-2.292-2.292-2.292H2.292C1.042.313 0 1.355 0 2.604v9.688c0 1.25 1.042 2.291 2.292 2.291h14.166c1.25 0 2.292-1.041 2.292-2.291V2.604zm-1.042 9.688c0 .729-.52 1.25-1.25 1.25H2.292c-.73 0-1.25-.521-1.25-1.25V5.417h16.666v6.875z" transform="translate(-16 -134) translate(16 134) translate(3.125 4.167) translate(0 .727)"/>
                    </g>
                    <path d="M14.48 11.25c-.418 0-.834-.313-.834-.833 0-.417.312-.834.833-.834.417 0 .834.313.834.834 0 .52-.417.833-.834.833m-2.083 0c-.417 0-.834-.313-.834-.833 0-.417.313-.834.834-.834.416 0 .833.313.833.834-.104.52-.416.833-.833.833m2.083-2.604c-.416 0-.729.104-1.041.312-.313-.208-.626-.312-1.042-.312-1.042 0-1.875.833-1.875 1.875 0 1.041.833 1.875 1.875 1.875.416 0 .729-.104 1.041-.313.313.209.626.313 1.042.313 1.042 0 1.875-.834 1.875-1.875 0-1.042-.833-1.875-1.875-1.875" transform="translate(-16 -134) translate(16 134) translate(3.125 4.167)"/>
                </g>
            </g>
        </g>
    </g>
</svg>
