<svg enable-background="new 0 0 477.867 477.867" viewBox="0 0 477.867 477.867" xmlns="http://www.w3.org/2000/svg"><path d="m476.996 114.074-34.133-102.4c-2.322-6.973-8.847-11.676-16.196-11.674h-375.467c-7.349-.002-13.874 4.701-16.196 11.674l-34.134 102.4c-.526 1.594-.82 3.255-.87 4.932v.461 17.067c.062 26.74 12.707 51.892 34.133 67.891v.375 221.867c0 28.277 22.923 51.2 51.2 51.2h307.2c28.277 0 51.2-22.923 51.2-51.2v-221.867c0-.137 0-.239 0-.375 21.426-15.999 34.072-41.151 34.133-67.891v-17.067c0-.171 0-.29 0-.461-.05-1.678-.343-3.339-.87-4.932zm-118.596-79.941h55.962l22.767 68.267h-78.729zm-102.4 0h68.267v68.267h-68.267zm-102.4 0h68.267v68.267h-68.267zm-90.095 0h55.962v68.267h-78.729zm209.562 409.6h-68.267v-136.533h68.267zm136.533-17.066c0 9.426-7.641 17.067-17.067 17.067h-85.333v-153.6c0-9.426-7.641-17.067-17.067-17.067h-102.4c-9.426 0-17.067 7.641-17.067 17.067v153.6h-85.333c-9.426 0-17.067-7.641-17.067-17.067v-206.507c23.951 4.917 48.857-.799 68.267-15.667 30.466 22.376 71.934 22.376 102.4 0 30.466 22.376 71.934 22.376 102.4 0 19.41 14.869 44.316 20.584 68.267 15.667zm-17.067-238.934c-14.759-.009-28.774-6.483-38.349-17.715-6.202-7.097-16.984-7.823-24.081-1.621-.576.503-1.118 1.045-1.621 1.621-18.977 21.18-51.529 22.965-72.709 3.989-1.401-1.256-2.733-2.587-3.989-3.989-6.679-7.097-17.847-7.437-24.945-.757-.26.245-.513.497-.757.757-18.976 21.18-51.529 22.965-72.709 3.989-1.402-1.256-2.733-2.587-3.989-3.989-6.679-7.097-17.848-7.437-24.945-.757-.26.245-.513.497-.757.757-9.575 11.232-23.589 17.706-38.349 17.715-28.277 0-51.2-22.923-51.2-51.2h409.6c0 28.277-22.923 51.2-51.2 51.2z"/></svg>