<?xml version="1.0" encoding="UTF-8"?>
<svg width="66px" height="53px" viewBox="0 0 66 53" version="1.1" xmlns="http://www.w3.org/2000/svg" xmlns:xlink="http://www.w3.org/1999/xlink">
    <!-- Generator: Sketch 54.1 (76490) - https://sketchapp.com -->
    <title>Group 5</title>
    <desc>Created with Sketch.</desc>
    <g id="Mi-cuenta" stroke="none" stroke-width="1" fill="none" fill-rule="evenodd">
        <g id="Group-5" transform="translate(2.000000, 0.000000)">
            <rect id="Rectangle" fill="#FFFFFF" x="6" y="19" width="4" height="4"></rect>
            <rect id="Rectangle-Copy-6" fill="#FFFFFF" x="26" y="34" width="4" height="4"></rect>
            <rect id="Rectangle" stroke="#000000" stroke-width="3" fill="#FFFFFF" x="7.5" y="1.5" width="55" height="35" rx="5"></rect>
            <path d="M4.95302113,24.8840388 C6.38605436,23.4041857 7.16236247,22.796116 7.28194547,23.05983 C7.72676378,24.0407786 7.44294341,31.5485534 7.66872711,32.4956447 C7.85494518,33.2767707 9.5335083,36.1634909 11.5092417,36.6880086 C13.5487029,37.2294447 16.4145562,31.3300369 17.521494,29.5334695 C18.0152232,28.7321438 20.4469789,25.6992187 22.6550331,24.6637458 C24.7804618,23.6670202 26.6927026,24.6515914 26.7684876,24.6637458 C26.8714983,24.6802666 26.9953748,24.7536976 27.1401169,24.8840388 C27.5918225,25.4511152 27.8424533,25.8681447 27.8920093,26.1351274 C27.9415652,26.40211 27.9415652,26.6317582 27.8920093,26.824072 C23.9626484,38.714198 21.3962414,45.584806 20.1927885,47.4358957 C19.6531907,48.2658774 19.98989,47.9371904 18.7966336,49.5034356 C18.5906719,49.7737769 13.3671234,52.869305 7.66872711,50.6149203 C3.86979622,49.1119972 1.31355386,43.9731303 0,35.1983195 C0.466821316,32.4610194 1.03557089,30.5727361 1.70624873,29.5334695 C2.37692656,28.494203 3.45918403,26.9443927 4.95302113,24.8840388 Z" id="Path-4" stroke="#000000" stroke-width="3" fill="#FFFFFF"></path>
            <path d="M47.5,21.3969144 C48.5329477,18.8199604 51.0539366,17 54,17 C57.8659932,17 61,20.1340068 61,24 C61,27.8659932 57.8659932,31 54,31 C51.0539366,31 48.5329477,29.1800396 47.5,26.6030856 C46.4670523,29.1800396 43.9460634,31 41,31 C37.1340068,31 34,27.8659932 34,24 C34,20.1340068 37.1340068,17 41,17 C43.9460634,17 46.4670523,18.8199604 47.5,21.3969144 Z" id="Combined-Shape" fill="#C9232C"></path>
        </g>
    </g>
</svg>