<svg xmlns="http://www.w3.org/2000/svg" xmlns:xlink="http://www.w3.org/1999/xlink" width="24" height="24" viewBox="0 0 24 24">
    <defs>
        <path id="prefix__a" d="M2 3L21.284 3 21.284 21.218 2 21.218z"/>
    </defs>
    <g fill="none" fill-rule="evenodd">
        <path d="M0 0H24V24H0z"/>
        <mask id="prefix__b" fill="#fff">
            <use xlink:href="#prefix__a"/>
        </mask>
        <path fill="#333" d="M14.471 11.811c0-.277.237-.502.528-.502.291 0 .528.225.528.502v1.534c-.15-.032-.287-.047-.42-.047-.217 0-.43.032-.636.096v-1.583zM16.835 14.194c-.197-.29-.468-.524-.78-.678l1.611-1.53c.099-.094.232-.146.374-.146.14 0 .272.052.372.146.206.196.206.514 0 .71l-1.577 1.498zM17.122 15.707c.04-.155.06-.3.06-.438 0-.187-.031-.377-.092-.565h1.593c.293 0 .529.225.529.502 0 .276-.236.501-.529.501h-1.56z" mask="url(#prefix__b)"/>
        <path fill="#333" d="M11.797 9.076L4.028 6.504l3.914-1.296 7.557 2.502-3.702 1.366zm-.48 11.055L2.96 17.365V7.116l8.356 2.766v10.25zm.526-16.214l7.617 2.33-2.584.954L9.4 4.726l2.443-.809zm8.958 8.651c-.217 0-.393.122-.476.292v4.28l-8.049 2.971V9.877l8.049-2.97v3.398c.083.17.259.292.476.292.226 0 .405-.134.483-.317V6.17c0-.22-.17-.395-.39-.435-.011-.004-.019-.013-.03-.016l-8.827-2.7c-.07-.022-.14-.023-.21-.013-.067-.008-.137-.004-.205.02l-9.3 3.077c-.136.045-.23.145-.28.264-.007.015-.008.032-.013.05-.01.032-.021.064-.022.1-.001.01-.007.02-.007.031v11.054c0 .018.008.033.011.051-.018.2.1.396.308.465l9.3 3.078c.069.023.14.026.207.02.063.001.126-.008.19-.03l8.915-3.293c.01-.003.014-.01.022-.014.19-.059.33-.223.33-.423v-4.57c-.077-.184-.256-.318-.482-.318z" mask="url(#prefix__b)"/>
    </g>
</svg>
