<svg id="Capa_1" enable-background="new 0 0 511.991 511.991" height="512" viewBox="0 0 511.991 511.991" width="512" xmlns="http://www.w3.org/2000/svg"><g><path d="m59.883 206.571c1.919 0 3.839-.732 5.304-2.197l189.257-189.258c.162-.164.434-.158.604.011l25.237 25.237-33.282 33.282c-2.583 2.584-3.628 6.243-2.797 9.789 1.239 5.277-.305 10.711-4.127 14.534-3.825 3.824-9.262 5.369-14.537 4.128-3.548-.83-7.203.215-9.79 2.799l-30.87 30.87c-2.929 2.929-2.929 7.678 0 10.606 1.465 1.464 3.385 2.197 5.304 2.197s3.839-.732 5.304-2.197l29.183-29.183c7.039 1.045 14.083-.388 20.067-3.976l18.686 18.685c1.465 1.464 3.385 2.197 5.304 2.197s3.839-.732 5.304-2.197c2.929-2.929 2.929-7.678 0-10.606l-18.695-18.692c3.575-5.979 5.002-13.012 3.96-20.037l66.509-66.509c1.407-1.408 3.7-1.409 5.109 0l47.103 47.103c-9.774 20.136-5.797 44.604 10.209 60.61 16.006 16.005 40.474 19.984 60.61 10.209l8.572 8.573c2.929 2.929 7.678 2.93 10.606 0 2.93-2.929 2.93-7.677.001-10.606l-10.923-10.923c-3.332-3.33-8.515-4.03-12.599-1.701-14.819 8.442-33.593 5.91-45.661-6.158-12.069-12.069-14.602-30.845-6.158-45.661 2.329-4.088 1.629-9.271-1.703-12.601l-49.451-49.451c-7.258-7.257-19.065-7.255-26.323 0l-24.309 24.309-25.236-25.236c-6.02-6.019-15.806-6.023-21.817-.012l-189.259 189.259c-2.929 2.929-2.929 7.678 0 10.606 1.465 1.465 3.384 2.197 5.304 2.197z"/><path d="m239.905 388.057-19.148-19.148c-2.93-2.929-7.678-2.929-10.607 0s-2.929 7.678 0 10.606l19.148 19.148c3.306 3.305 7.7 5.125 12.375 5.125 4.674 0 9.068-1.82 12.374-5.125l78.153-78.153c3.305-3.305 5.125-7.7 5.125-12.374 0-4.675-1.82-9.069-5.125-12.375l-56.332-56.331 1.84-1.84c4.872-4.874 4.872-12.803 0-17.677l-21.802-21.801c-2.36-2.361-5.5-3.662-8.839-3.662s-6.478 1.3-8.84 3.661l-17.455 17.455c-1.334-4.784-3.876-9.172-7.484-12.779l-2.421-2.422c-11.406-11.405-29.963-11.405-41.367 0l-2.42 2.421c-5.067 5.054-9.103 13.807-8.526 22.234-7.046-.451-16.241 2.442-22.233 8.524l-2.423 2.422c-11.404 11.404-11.404 29.961.001 41.366l2.421 2.421c3.608 3.608 7.996 6.149 12.781 7.484l-17.455 17.455c-2.361 2.361-3.662 5.5-3.662 8.84s1.301 6.479 3.661 8.839l21.802 21.801c2.36 2.361 5.5 3.662 8.839 3.662s6.479-1.3 8.839-3.661l1.84-1.84 12.395 12.395c1.464 1.464 3.384 2.197 5.303 2.197s3.839-.732 5.304-2.197c2.929-2.929 2.929-7.678-.001-10.606l-12.395-12.394 25.244-25.244 58.098 58.099-23.476 23.476c-.974.974-2.559.972-3.532-.002zm81.688-81.688c.976.975.976 2.561 0 3.536l-23.476 23.476-58.099-58.099 25.243-25.243zm-74.525-95.883 18.266 18.266-35.922 35.922-18.266-18.266zm-46.529 46.53 18.266 18.266-9.988 9.988-18.266-18.266zm-27.025-33.546c0-3.806 1.482-7.385 4.175-10.077l2.421-2.421c2.691-2.691 6.27-4.174 10.076-4.174s7.385 1.482 10.076 4.173l2.422 2.422c2.691 2.691 4.174 6.27 4.174 10.076s-1.482 7.385-4.174 10.076h-.001l-12.497 12.497-12.498-12.497c-2.692-2.691-4.174-6.269-4.174-10.075zm-29.006 43.256c-5.557-5.556-5.557-14.597-.001-20.152l2.423-2.422c2.69-2.691 6.27-4.173 10.075-4.173 3.807 0 7.385 1.482 10.076 4.173l12.498 12.498-12.497 12.498c-2.692 2.691-6.271 4.173-10.077 4.173s-7.385-1.482-10.076-4.174zm17.78 65.072-18.266-18.266 35.922-35.922 18.266 18.266zm57.136-35.922 9.988-9.988 58.099 58.099-9.988 9.988z"/><path d="m506.548 170.473-13.321-13.321c-2.927-2.929-7.676-2.929-10.606 0-2.929 2.929-2.929 7.678 0 10.606l13.321 13.321c1.409 1.409 1.409 3.701 0 5.11l-66.006 66.006c-7.346-1.378-14.903.004-21.237 3.763l-17.993-17.993c-2.929-2.929-7.677-2.929-10.607 0-2.929 2.929-2.929 7.678 0 10.606l17.986 17.987c-3.773 6.342-5.161 13.912-3.78 21.269l-208.113 208.111c-1.408 1.407-3.701 1.408-5.109 0l-47.103-47.103c9.774-20.136 5.797-44.604-10.209-60.61-16.005-16.005-40.473-19.984-60.61-10.209l-47.103-47.103c-.921-.921-1.059-1.996-1.059-2.555s.138-1.634 1.059-2.555l154.747-154.747c2.929-2.929 2.929-7.678 0-10.606-2.93-2.929-7.678-2.929-10.607 0l-119.831 119.831-25.236-25.237c-.036-.036-.131-.13-.131-.312 0-.172.086-.258.119-.291l24.718-24.718c2.929-2.929 2.929-7.678 0-10.606-2.93-2.929-7.678-2.929-10.607 0l-24.718 24.718c-6.011 6.011-6.006 15.798.012 21.815l25.237 25.237-24.31 24.31c-3.514 3.516-5.451 8.19-5.451 13.161 0 4.972 1.937 9.646 5.451 13.162l49.453 49.453c3.33 3.33 8.513 4.029 12.599 1.701 14.817-8.443 33.592-5.91 45.661 6.158 12.069 12.069 14.602 30.845 6.158 45.661-2.329 4.088-1.629 9.271 1.703 12.601l49.451 49.452c3.629 3.628 8.396 5.442 13.161 5.442 4.767 0 9.533-1.814 13.162-5.443l209.882-209.882c2.676-2.676 3.701-6.612 2.676-10.273-1.516-5.403.003-11.22 3.962-15.179s9.776-5.477 15.177-3.963c3.662 1.028 7.598.003 10.275-2.675l67.777-67.777c7.258-7.258 7.258-19.066 0-26.323z"/><path d="m362.066 227.434c1.92 0 3.839-.732 5.304-2.197 2.929-2.929 2.929-7.678 0-10.606l-23.335-23.334c-2.93-2.929-7.678-2.929-10.607 0s-2.929 7.678 0 10.606l23.335 23.334c1.465 1.464 3.384 2.197 5.303 2.197z"/><path d="m315.397 180.765c1.919 0 3.839-.732 5.304-2.197 2.929-2.929 2.929-7.678 0-10.606l-23.335-23.334c-2.93-2.929-7.678-2.929-10.607 0s-2.929 7.678 0 10.606l23.335 23.334c1.465 1.465 3.385 2.197 5.303 2.197z"/><path d="m384.442 185.741 3.08 3.08c1.465 1.464 3.385 2.197 5.304 2.197s3.839-.732 5.304-2.197c2.929-2.929 2.929-7.678 0-10.606l-3.74-3.74c4.935-9.419 3.208-20.326-1.979-27.609-6.998-9.829-19.164-12.868-30.274-7.563-6.058 2.895-12.914 5.933-17.832 6.528-1.393.169-3.179-.948-4.428-2.778-.634-.928-2.558-4.224-.706-7.673 3.623-6.747 9.56-7.399 10.225-7.451 4.13-.324 7.215-3.934 6.892-8.063-.324-4.129-3.934-7.212-8.063-6.891-1.423.111-6.265.717-11.492 3.842l-2.949-2.949c-2.928-2.929-7.677-2.928-10.606 0-2.929 2.929-2.929 7.678.001 10.606l3.151 3.151c-3.741 6.192-3.974 16.408 1.162 23.887 4.46 6.531 11.6 10.06 18.616 9.21 5.699-.689 12.218-2.973 22.497-7.884 6.5-3.104 10.27.875 11.591 2.729 2.706 3.8 3.485 10.053-1.2 14.8-4.772 4.837-6.365 5.993-12.394 7.254-4.055.848-6.654 4.822-5.806 8.876.739 3.537 3.857 5.967 7.333 5.966 5.405-.551 12.275-3.306 16.313-6.722z"/></g></svg>