<?xml version="1.0" encoding="UTF-8"?>
<svg width="49px" height="43px" viewBox="0 0 49 43" version="1.1" xmlns="http://www.w3.org/2000/svg" xmlns:xlink="http://www.w3.org/1999/xlink">
    <!-- Generator: Sketch 54.1 (76490) - https://sketchapp.com -->
    <title>Combined Shape Copy</title>
    <desc>Created with Sketch.</desc>
    <g id="Mi-cuenta" stroke="none" stroke-width="1" fill="none" fill-rule="evenodd">
        <path d="M6.49739336,9.85458403 C6.26780729,8.95496274 6.12769048,8.01762335 6.08565283,7.05721817 C6.07767476,6.87494879 6.20180073,5.84053545 6.20180073,5.65669609 C6.20180073,-0.991597376 10.831075,-5.22713008 17.4723327,-5.22713008 C24.1135903,-5.22713008 29.4973934,0.162376645 29.4973934,6.81067011 C29.4973934,7.58681319 29.4240176,8.3458003 29.2838316,9.08105909 C29.6027809,9.05351453 29.9291512,9.0394576 30.2628349,9.0394576 C36.9040925,9.0394576 43.9274662,14.6077369 43.9274662,21.2560303 C43.9274662,27.9043238 37.8701022,33.0108524 31.2288445,33.0108524 C30.3314187,33.0108524 29.4692528,32.9176081 28.6492045,32.7399153 L6.49739336,32.7399153 L6.49739336,9.85458403 Z" id="Combined-Shape-Copy" stroke="#000000" stroke-width="3.2" transform="translate(25.006375, 13.891861) rotate(-46.000000) translate(-25.006375, -13.891861) "></path>
    </g>
</svg>