<?xml version="1.0" encoding="UTF-8"?>
<svg width="47px" height="31px" viewBox="0 0 47 31" version="1.1" xmlns="http://www.w3.org/2000/svg" xmlns:xlink="http://www.w3.org/1999/xlink">
    <!-- Generator: Sketch 54.1 (76490) - https://sketchapp.com -->
    <title>Group 4 Copy</title>
    <desc>Created with Sketch.</desc>
    <g id="Mi-cuenta" stroke="none" stroke-width="1" fill="none" fill-rule="evenodd">
        <g id="Group-4-Copy">
            <g id="Group-3" transform="translate(-0.000000, 0.000000)" stroke="#000000" stroke-width="3">
                <path d="M1.5,21.353205 L1.5,29.5 L45.5,29.5 L45.5,21.353205 C42.6700697,20.7900573 40.5,18.6652474 40.5,16 C40.5,13.3347526 42.6700697,11.2099427 45.5,10.646795 L45.5,1.5 L1.5,1.5 L1.5,10.646795 C4.32993029,11.2099427 6.5,13.3347526 6.5,16 C6.5,18.6652474 4.32993029,20.7900573 1.5,21.353205 Z" id="Combined-Shape"></path>
                <path d="M16.5,2.5 L16.5,5.5" id="Line-9" stroke-linecap="square"></path>
                <path d="M16.5,9.5 L16.5,13.5" id="Line-9-Copy-2" stroke-linecap="square"></path>
                <path d="M16.5,17.5 L16.5,21.5" id="Line-9-Copy-3" stroke-linecap="square"></path>
                <path d="M16.5,25.5 L16.5,29.5" id="Line-9-Copy-4" stroke-linecap="square"></path>
            </g>
            <text id="$" font-family="Helvetica" font-size="23" font-weight="normal" letter-spacing="0.180000007" fill="#000000">
                <tspan x="22" y="23">$</tspan>
            </text>
        </g>
    </g>
</svg>