<?xml version="1.0" encoding="utf-8"?>
<!-- Generator: Adobe Illustrator 22.1.0, SVG Export Plug-In . SVG Version: 6.00 Build 0)  -->
<svg version="1.1" id="Capa_1" xmlns="http://www.w3.org/2000/svg" xmlns:xlink="http://www.w3.org/1999/xlink" x="0px" y="0px"
	 viewBox="0 0 24 24" style="enable-background:new 0 0 24 24;" xml:space="preserve">
<style type="text/css">
	.st0{clip-path:url(#SVGID_2_);enable-background:new    ;}
	.st1{clip-path:url(#SVGID_4_);}
	.st2{clip-path:url(#SVGID_6_);}
	.st3{clip-path:url(#SVGID_8_);fill:#333333;}
	.st4{clip-path:url(#SVGID_10_);}
	.st5{clip-path:url(#SVGID_12_);fill:#333333;}
</style>
<g>
	<defs>
		<rect id="SVGID_1_" x="3" y="3" width="18" height="18"/>
	</defs>
	<clipPath id="SVGID_2_">
		<use xlink:href="#SVGID_1_"  style="overflow:visible;"/>
	</clipPath>
	<g class="st0">
		<g>
			<defs>
				<rect id="SVGID_3_" x="2" y="3" width="19" height="19"/>
			</defs>
			<clipPath id="SVGID_4_">
				<use xlink:href="#SVGID_3_"  style="overflow:visible;"/>
			</clipPath>
			<g class="st1">
				<defs>
					<path id="SVGID_5_" d="M20.1,10h-1.7c-0.3,0-0.5-0.1-0.6-0.4s-0.1-0.5,0.1-0.7l1.2-1.2c0.2-0.2,0.3-0.4,0.3-0.7
						c0-0.2-0.1-0.5-0.3-0.7l-1.5-1.5c-0.4-0.4-1-0.4-1.3,0l-1.2,1.2c-0.2,0.2-0.5,0.2-0.7,0.1C14.1,6.1,14,5.9,14,5.6V3.9
						C14,3.4,13.6,3,13.1,3h-2.1C10.4,3,10,3.4,10,3.9v1.7c0,0.3-0.1,0.5-0.4,0.6C9.4,6.3,9.1,6.3,8.9,6.1L7.7,4.9
						c-0.4-0.4-1-0.4-1.3,0L4.9,6.4C4.7,6.6,4.6,6.8,4.6,7.1c0,0.2,0.1,0.5,0.3,0.7l1.2,1.2c0.2,0.2,0.2,0.5,0.1,0.7
						C6.1,9.9,5.9,10,5.6,10H3.9C3.4,10,3,10.4,3,10.9v2.1C3,13.6,3.4,14,3.9,14h1.7c0.3,0,0.5,0.1,0.6,0.4c0.1,0.2,0.1,0.5-0.1,0.7
						l-1.2,1.2c-0.2,0.2-0.3,0.4-0.3,0.7c0,0.2,0.1,0.5,0.3,0.7l1.5,1.5c0.3,0.3,1,0.4,1.3,0l1.2-1.2c0.2-0.2,0.5-0.2,0.7-0.1
						c0.2,0.1,0.4,0.3,0.4,0.6v1.7c0,0.5,0.4,0.9,0.9,0.9h2.1c0.5,0,0.9-0.4,0.9-0.9v-1.7c0-0.3,0.1-0.5,0.4-0.6
						c0.3-0.1,0.5-0.1,0.7,0.1l1.2,1.2c0.4,0.3,1,0.3,1.3,0l1.5-1.5c0.2-0.2,0.3-0.4,0.3-0.7c0-0.2-0.1-0.5-0.3-0.7l-1.2-1.2
						c-0.2-0.2-0.2-0.5-0.1-0.7s0.3-0.4,0.6-0.4h1.7c0.5,0,0.9-0.4,0.9-0.9v-2.1C21,10.4,20.6,10,20.1,10z M20,13h-1.6
						c-0.7,0-1.3,0.4-1.5,1c-0.3,0.6-0.1,1.3,0.4,1.8l1.1,1.1l-1.4,1.4l-1.1-1.1c-0.3-0.3-0.7-0.5-1.2-0.5c-0.2,0-0.4,0-0.6,0.1
						c-0.6,0.3-1,0.8-1,1.5V20h-2v-1.6c0-0.7-0.4-1.3-1-1.5c-0.2-0.1-0.4-0.1-0.6-0.1c-0.4,0-0.8,0.2-1.2,0.5l-1.1,1.1L5.6,17
						l1.1-1.1c0.5-0.5,0.6-1.2,0.4-1.8c-0.3-0.6-0.8-1-1.5-1H4v-2h1.6c0.7,0,1.3-0.4,1.5-1c0.3-0.6,0.1-1.3-0.4-1.8L5.6,7l1.4-1.4
						l1.1,1.1c0.3,0.3,0.7,0.5,1.2,0.5c0.2,0,0.4,0,0.6-0.1c0.6-0.3,1-0.8,1-1.5V4h2v1.6c0,0.7,0.4,1.3,1,1.5
						c0.2,0.1,0.4,0.1,0.6,0.1c0.4,0,0.8-0.2,1.2-0.5l1.1-1.1L18.4,7l-1.1,1.1c-0.5,0.5-0.6,1.2-0.4,1.8c0.3,0.6,0.8,1,1.5,1H20V13z
						"/>
				</defs>
				<clipPath id="SVGID_6_">
					<use xlink:href="#SVGID_5_"  style="overflow:visible;"/>
				</clipPath>
				<g class="st2">
					<defs>
						<rect id="SVGID_7_" x="3" y="3" width="18" height="19"/>
					</defs>
					<clipPath id="SVGID_8_">
						<use xlink:href="#SVGID_7_"  style="overflow:visible;"/>
					</clipPath>
					<rect x="-2" y="-2" class="st3" width="28" height="28"/>
				</g>
			</g>
		</g>
	</g>
</g>
<g>
	<defs>
		<path id="SVGID_9_" d="M12.2,14c-0.1,0-0.1,0-0.2,0c-1.1,0-2-0.9-2-2s0.9-2,2-2c1.1,0,2,0.9,2,2c0,0.1,0,0.1,0,0.2
			c0,0.7,0.9,0.7,1,0.1c0-0.1,0-0.2,0-0.3c0-1.7-1.3-3-3-3s-3,1.3-3,3s1.3,3,3,3c0.1,0,0.1,0,0.2,0C13,14.9,12.8,13.9,12.2,14"/>
	</defs>
	<clipPath id="SVGID_10_">
		<use xlink:href="#SVGID_9_"  style="overflow:visible;"/>
	</clipPath>
	<g class="st4">
		<defs>
			<rect id="SVGID_11_" x="-22" y="-680" width="375" height="793"/>
		</defs>
		<clipPath id="SVGID_12_">
			<use xlink:href="#SVGID_11_"  style="overflow:visible;"/>
		</clipPath>
		<rect x="4" y="4" class="st5" width="16" height="16"/>
	</g>
</g>
</svg>
