<?xml version="1.0" encoding="utf-8"?>
<!-- Generator: Adobe Illustrator 22.1.0, SVG Export Plug-In . SVG Version: 6.00 Build 0)  -->
<svg version="1.1" id="Capa_1" xmlns="http://www.w3.org/2000/svg" xmlns:xlink="http://www.w3.org/1999/xlink" x="0px" y="0px"
	 viewBox="0 0 24 24" style="enable-background:new 0 0 24 24;" xml:space="preserve">
<style type="text/css">
	.st0{clip-path:url(#SVGID_2_);}
	.st1{opacity:0.4;clip-path:url(#SVGID_4_);fill:#FFFFFF;}
	.st2{clip-path:url(#SVGID_6_);}
	.st3{clip-path:url(#SVGID_8_);fill:#F65454;}
</style>
<g>
	<defs>
		<circle id="SVGID_1_" cx="12" cy="12" r="12"/>
	</defs>
	<clipPath id="SVGID_2_">
		<use xlink:href="#SVGID_1_"  style="overflow:visible;"/>
	</clipPath>
	<g class="st0">
		<defs>
			<rect id="SVGID_3_" x="-27" y="-18" width="132" height="61"/>
		</defs>
		<clipPath id="SVGID_4_">
			<use xlink:href="#SVGID_3_"  style="overflow:visible;"/>
		</clipPath>
		<rect x="-5" y="-5" class="st1" width="34" height="34"/>
	</g>
</g>
<g>
	<defs>
		<path id="SVGID_5_" d="M12.5,21.8C12.4,21.9,12.2,22,12,22s-0.4-0.1-0.5-0.2l-7-7.1c-0.1-0.1-0.2-0.2-0.3-0.3
			c-0.1-0.1-0.3-0.4-0.6-0.8c-0.3-0.4-0.5-0.8-0.8-1.1c-0.2-0.4-0.4-0.9-0.6-1.4C2.1,10.5,2,10,2,9.5c0-1.7,0.5-3.1,1.4-4
			C4.4,4.5,5.7,4,7.3,4c0.5,0,0.9,0.1,1.4,0.3c0.5,0.2,0.9,0.4,1.3,0.7c0.4,0.3,0.8,0.6,1.1,0.8C11.4,6,11.7,6.2,12,6.5
			c0.3-0.3,0.6-0.5,0.8-0.8c0.3-0.2,0.7-0.5,1.1-0.8c0.4-0.3,0.9-0.5,1.3-0.7c0.5-0.2,1-0.3,1.4-0.3c1.7,0,3,0.5,3.9,1.5
			c0.9,1,1.4,2.3,1.4,4c0,1.7-0.9,3.5-2.6,5.3L12.5,21.8L12.5,21.8z"/>
	</defs>
	<clipPath id="SVGID_6_">
		<use xlink:href="#SVGID_5_"  style="overflow:visible;"/>
	</clipPath>
	<g class="st2">
		<defs>
			<rect id="SVGID_7_" x="-27" y="-18" width="132" height="61"/>
		</defs>
		<clipPath id="SVGID_8_">
			<use xlink:href="#SVGID_7_"  style="overflow:visible;"/>
		</clipPath>
		<rect x="-3" y="-1" class="st3" width="30" height="28"/>
	</g>
</g>
</svg>
