<svg xmlns="http://www.w3.org/2000/svg" xmlns:xlink="http://www.w3.org/1999/xlink" width="24" height="24" viewBox="0 0 24 24">
    <defs>
        <path id="prefix__a" d="M0 0L18 0 18 16.719 0 16.719z"/>
    </defs>
    <g fill="none" fill-rule="evenodd">
        <path d="M0 0H24V24H0z"/>
        <g transform="translate(3 4)">
            <mask id="prefix__b" fill="#fff">
                <use xlink:href="#prefix__a"/>
            </mask>
            <path fill="#333" d="M16.914 8.733c-.051.054-.12.085-.194.087-.078 0-.146-.025-.198-.075l-7.166-6.75c-.094-.089-.217-.138-.347-.138-.13 0-.251.048-.345.137l-7.185 6.73c-.05.048-.118.074-.19.074-.076 0-.15-.03-.202-.088-.051-.054-.077-.124-.074-.197.002-.074.033-.144.088-.195l7.72-7.233c.052-.048.118-.074.19-.074.07 0 .138.026.189.074l7.7 7.255c.056.051.087.12.089.194.003.075-.024.145-.075.2zm-2.752-6.006l-.003 1.631-1.232-1.149v-.482h1.235zM7.667 15.72h2.669v-4.106h-2.67v4.106zm9.929-8.115l-2.498-2.354.066-2.844c0-.186-.071-.359-.202-.487-.13-.13-.301-.202-.485-.202l-1.763-.002c-.184 0-.358.071-.487.2-.12.12-.19.276-.2.442L9.894.35C9.654.124 9.34 0 9.01 0c-.33 0-.643.123-.882.347L.408 7.58c-.251.236-.395.554-.407.9-.01.343.113.67.348.922.242.26.585.407.939.408.33 0 .644-.124.883-.348l.34-.318v6.963c0 .375.237.612.529.612h11.92c.292 0 .529-.237.529-.529v-1.735c-.03-.248-.24-.444-.503-.444-.275 0-.495.211-.51.475v1.234H11.34v-4.488c0-.375-.238-.613-.531-.613H7.272c-.375 0-.612.238-.612.53v4.571l-3.151.013V8.17S7.896 4.097 9.02 2.972c.063.13 5.455 5.234 5.455 5.234v3.346c.015.264.235.475.51.475.264 0 .474-.195.503-.444v-2.42l.339.318c.24.226.554.351.883.351.385-.012.703-.155.938-.406.237-.25.36-.577.35-.922-.01-.344-.153-.664-.403-.899z" mask="url(#prefix__b)"/>
        </g>
    </g>
</svg>
