<svg xmlns="http://www.w3.org/2000/svg" xmlns:xlink="http://www.w3.org/1999/xlink" width="24" height="24" viewBox="0 0 24 24">
    <defs>
        <path id="prefix__a" d="M0 -0.001L19.998 -0.001 19.998 18.061 0 18.061z"/>
    </defs>
    <g fill="none" fill-rule="evenodd">
        <path d="M0 0H24V24H0z"/>
        <g transform="translate(2 3)">
            <mask id="prefix__b" fill="#fff">
                <use xlink:href="#prefix__a"/>
            </mask>
            <path fill="#333" d="M9.997 18.06c-.074 0-.146-.028-.204-.081L2.17 10.953C.77 9.665 0 7.96 0 6.15l.003-.218C.056 4.337.68 2.845 1.758 1.736 2.843.615 4.274 0 5.786 0c1.59 0 3.128.708 4.22 1.942l.08.09.013-.093C11.07.726 12.604 0 14.21 0c1.51 0 2.938.616 4.023 1.73 1.078 1.111 1.703 2.598 1.758 4.189l.008.117-.002.115c0 1.807-.772 3.514-2.172 4.803l-1.758 1.627c-.098.082-.219.126-.34.126-.15 0-.295-.064-.398-.175-.19-.207-.193-.514-.008-.719l1.774-1.648c1.177-1.083 1.825-2.51 1.825-4.013l-.004-.197c-.046-1.324-.563-2.558-1.454-3.474-.88-.907-2.036-1.405-3.253-1.405-1.318 0-2.586.603-3.478 1.653l-.647.761-.817-.76c-.894-1.052-2.16-1.655-3.48-1.655-1.219 0-2.376.501-3.257 1.411-.905.93-1.407 2.159-1.454 3.552v.114c0 1.503.647 2.928 1.823 4.013l7.177 6.614 3.31-3.155c.093-.053.186-.079.277-.079.15 0 .287.06.39.171.163.175.188.441.06.648l-.32.299c-.082.082-.308.29-.308.29l-1.719 1.597-1.565 1.43c-.058.053-.13.082-.203.082" mask="url(#prefix__b)"/>
        </g>
    </g>
</svg>
