<?xml version="1.0" encoding="utf-8"?>
<!-- Generator: Adobe Illustrator 22.1.0, SVG Export Plug-In . SVG Version: 6.00 Build 0)  -->
<svg version="1.1" id="Capa_1" xmlns="http://www.w3.org/2000/svg" xmlns:xlink="http://www.w3.org/1999/xlink" x="0px" y="0px"
	 viewBox="0 0 24 24" style="enable-background:new 0 0 24 24;" xml:space="preserve">
<style type="text/css">
	.st0{clip-path:url(#SVGID_2_);}
	.st1{opacity:0.4;clip-path:url(#SVGID_4_);fill:#FFFFFF;}
	.st2{clip-path:url(#SVGID_6_);enable-background:new    ;}
	.st3{clip-path:url(#SVGID_8_);}
	.st4{clip-path:url(#SVGID_10_);}
	.st5{clip-path:url(#SVGID_12_);fill:#9B9B9B;}
</style>
<g>
	<defs>
		<circle id="SVGID_1_" cx="12" cy="12" r="12"/>
	</defs>
	<clipPath id="SVGID_2_">
		<use xlink:href="#SVGID_1_"  style="overflow:visible;"/>
	</clipPath>
	<g class="st0">
		<defs>
			<rect id="SVGID_3_" x="-78" y="-18" width="132" height="61"/>
		</defs>
		<clipPath id="SVGID_4_">
			<use xlink:href="#SVGID_3_"  style="overflow:visible;"/>
		</clipPath>
		<rect x="-5" y="-5" class="st1" width="34" height="34"/>
	</g>
</g>
<g>
	<defs>
		<rect id="SVGID_5_" x="2" y="4" width="19.7" height="17.8"/>
	</defs>
	<clipPath id="SVGID_6_">
		<use xlink:href="#SVGID_5_"  style="overflow:visible;"/>
	</clipPath>
	<g class="st2">
		<g>
			<defs>
				<rect id="SVGID_7_" x="2" y="4" width="20" height="18"/>
			</defs>
			<clipPath id="SVGID_8_">
				<use xlink:href="#SVGID_7_"  style="overflow:visible;"/>
			</clipPath>
			<g class="st3">
				<defs>
					<path id="SVGID_9_" d="M21.7,9.8C21.6,8.2,21,6.8,20,5.7C18.9,4.6,17.5,4,16,4c-1.6,0-3.1,0.7-4.1,1.9C10.8,4.7,9.3,4,7.8,4
						c-1.5,0-2.9,0.6-4,1.7C2.7,6.8,2.1,8.2,2,9.8V10c0,1.8,0.8,3.5,2.2,4.7l7.4,6.9c0.1,0.1,0.2,0.1,0.3,0.1c0.1,0,0.2-0.1,0.2-0.1
						s6.9-6.4,7.4-6.9c1.4-1.3,2.2-3,2.2-4.7V9.8z M18.8,14l-6.8,6.4L5,14c-1.2-1.1-1.8-2.5-1.8-3.9V9.9c0-1.4,0.5-2.6,1.4-3.5
						c0.9-0.9,2-1.4,3.2-1.4c1.3,0,2.5,0.6,3.4,1.6l0.8,0.9l0.7-0.8c0.9-1,2.1-1.6,3.4-1.6c1.2,0,2.3,0.5,3.2,1.4
						c0.9,0.9,1.4,2.1,1.4,3.4v0.2C20.6,11.5,20,12.9,18.8,14z"/>
				</defs>
				<clipPath id="SVGID_10_">
					<use xlink:href="#SVGID_9_"  style="overflow:visible;"/>
				</clipPath>
				<g class="st4">
					<defs>
						<rect id="SVGID_11_" x="2" y="4" width="20" height="18"/>
					</defs>
					<clipPath id="SVGID_12_">
						<use xlink:href="#SVGID_11_"  style="overflow:visible;"/>
					</clipPath>
					<rect x="-3" y="-1" class="st5" width="29.7" height="27.8"/>
				</g>
			</g>
		</g>
	</g>
</g>
</svg>
