<svg xmlns="http://www.w3.org/2000/svg" width="24" height="24" viewBox="0 0 24 24">
    <g fill="none" fill-rule="evenodd">
        <path d="M0 0H24V24H0z"/>
        <path fill="#333" d="M8.579 13.32H5.105C3.947 13.32 3 14.267 3 15.425V16.797c.037.16.252.284.524.284.268 0 .488-.121.529-.277v-1.379c0-.58.472-1.052 1.052-1.052H8.58c.58 0 1.053.472 1.053 1.052V18.9c0 .581-.473 1.053-1.053 1.053H5.105c-.58 0-1.052-.472-1.052-1.053v-.239c-.041-.156-.261-.279-.529-.279-.272 0-.487.124-.524.284V18.9c0 .014.004.026.004.04.022 1.139.957 2.065 2.101 2.065H8.58c1.158 0 2.105-.947 2.105-2.105v-3.474c0-1.158-.947-2.105-2.105-2.105M8.579 3H5.105C3.947 3 3 3.947 3 5.105V6.477c.037.159.252.284.524.284.268 0 .488-.121.529-.277V5.105c0-.58.472-1.052 1.052-1.052H8.58c.58 0 1.053.471 1.053 1.052V8.58c0 .58-.473 1.053-1.053 1.053H5.105c-.58 0-1.052-.473-1.052-1.053V8.34c-.041-.156-.261-.279-.529-.279-.272 0-.487.124-.524.284V8.58c0 .014.004.026.004.04.022 1.139.957 2.065 2.101 2.065H8.58c1.158 0 2.105-.947 2.105-2.105V5.105C10.684 3.947 9.737 3 8.58 3M15.425 21.004H18.9c1.158 0 2.105-.947 2.105-2.105V17.527c-.036-.16-.251-.284-.524-.284-.267 0-.487.121-.528.277v1.379c0 .58-.473 1.053-1.053 1.053h-3.474c-.58 0-1.052-.473-1.052-1.053v-3.474c0-.58.472-1.052 1.052-1.052H18.9c.58 0 1.053.471 1.053 1.052v.24c.04.155.26.278.528.278.273 0 .488-.124.524-.284V15.425c0-.013-.004-.026-.004-.04-.022-1.139-.957-2.065-2.101-2.065h-3.474c-1.158 0-2.105.947-2.105 2.105V18.9c0 1.158.947 2.105 2.105 2.105M15.425 10.684H18.9c1.158 0 2.105-.947 2.105-2.105V7.207c-.036-.159-.251-.284-.524-.284-.267 0-.487.121-.528.277v1.379c0 .58-.473 1.053-1.053 1.053h-3.474c-.58 0-1.052-.473-1.052-1.053V5.105c0-.58.472-1.052 1.052-1.052H18.9c.58 0 1.053.471 1.053 1.052v.24c.04.155.26.278.528.278.273 0 .488-.124.524-.284V5.105c0-.013-.004-.026-.004-.04C20.978 3.926 20.043 3 18.899 3h-3.474c-1.158 0-2.105.947-2.105 2.105V8.58c0 1.158.947 2.105 2.105 2.105"/>
    </g>
</svg>
