<svg enable-background="new 0 0 512.001 512.001" viewBox="0 0 512.001 512.001" xmlns="http://www.w3.org/2000/svg"><path d="m507.606 4.394c-5.857-5.858-15.356-5.858-21.214 0l-43.69 43.69c-2.686-1.28-5.52-2.311-8.479-3.05l-135.771-33.543c-15.246-3.811-31.622.724-42.735 11.837l-242.557 242.158c-17.545 17.546-17.545 46.096 0 63.643l169.713 169.712c17.546 17.546 46.096 17.547 63.643 0l242.158-242.558c11.113-11.113 15.649-27.489 11.836-42.736l-33.542-135.77c-.74-2.958-1.77-5.793-3.05-8.479l43.69-43.69c5.856-5.858 5.856-15.356-.002-21.214zm-36.203 216.431c1.271 5.082-.241 10.54-3.945 14.245l-242.158 242.557c-5.849 5.849-15.366 5.849-21.215 0l-169.712-169.713c-5.849-5.849-5.849-15.366 0-21.215l242.558-242.157c2.837-2.837 6.703-4.388 10.641-4.388 1.204 0 2.415.145 3.604.442l127.53 31.483-36.125 36.125c-16.725-7.966-37.384-5.044-51.21 8.782-17.547 17.547-17.547 46.096 0 63.643 8.772 8.773 20.297 13.16 31.821 13.16 11.523 0 23.048-4.386 31.82-13.16 13.829-13.828 16.75-34.486 8.782-51.211l36.125-36.125zm-97.604-61.409c-5.848 5.848-15.365 5.849-21.214 0-5.848-5.848-5.848-15.366 0-21.214 2.925-2.925 6.765-4.386 10.607-4.386 3.84 0 7.682 1.462 10.605 4.385l.001.001.001.001c5.849 5.848 5.848 15.365 0 21.213z"/><path d="m246.514 180.63c-17.546-17.546-46.096-17.546-63.643 0-17.545 17.546-17.545 46.096 0 63.643 17.546 17.546 46.097 17.546 63.643 0 17.547-17.547 17.547-46.096 0-63.643zm-21.213 42.428c-5.849 5.849-15.366 5.849-21.214 0s-5.85-15.366-.001-21.214 15.365-5.849 21.215 0c5.848 5.848 5.848 15.365 0 21.214z"/><path d="m267.728 329.128c-17.587-17.587-46.052-17.589-63.642 0-17.547 17.547-17.547 46.096 0 63.643 17.588 17.587 46.053 17.59 63.642 0 17.547-17.547 17.547-46.096 0-63.643zm-21.214 42.429c-5.861 5.862-15.352 5.863-21.214 0-5.848-5.848-5.848-15.366 0-21.214 5.862-5.862 15.352-5.863 21.214 0 5.848 5.848 5.848 15.364 0 21.214z"/><path d="m335.673 274.437c-.915-8.234-8.333-14.168-16.566-13.253l-190.926 21.214c-8.234.915-14.168 8.331-13.253 16.566.853 7.671 7.347 13.346 14.891 13.346.553 0 1.113-.031 1.675-.093l190.927-21.214c8.234-.916 14.168-8.332 13.252-16.566z"/></svg>