<?xml version="1.0" encoding="utf-8"?>
<!-- Generator: Adobe Illustrator 22.1.0, SVG Export Plug-In . SVG Version: 6.00 Build 0)  -->
<svg version="1.1" id="Capa_1" xmlns="http://www.w3.org/2000/svg" xmlns:xlink="http://www.w3.org/1999/xlink" x="0px" y="0px"
	 viewBox="0 0 512 512" style="enable-background:new 0 0 512 512;" xml:space="preserve">
<style type="text/css">
	.st0{fill:#FFFFFF;}
</style>
<g>
	<path class="st0" d="M43,129l-28,59.8C6.6,270.5,5,385,101.7,448.3l83.6,46.6c144.3,35.4,234.1-41.4,285.8-108.6l28.7-95.3
		c-62.4,59.8-105.3,77.3-105.3,77.3l-88,5.4c-70.7,1.3-251.3-136-122.7-318L232.6,9C165,27,125,19.7,43,129z"/>
	<g>
		<g>
			<path d="M405.6,360.3c-1.4-4-5.7-6.1-9.7-4.7c-31.4,10.9-65.2,13.4-97.9,7c-4.6-0.9-9.1,2.6-9.1,7.7c0.1,3.7,2.9,6.7,6.5,7.3
				c12.7,2.4,25.6,3.7,38.5,3.7c22.7,0,45.4-3.8,67-11.3C404.9,368.6,407,364.3,405.6,360.3z"/>
		</g>
	</g>
	<g>
		<g>
			<path d="M504.7,266.6c-3-0.2-5.7,1.5-7.2,4.1c-8.3,14.7-18.7,28.3-30.7,40.4c-12.4,12.4-26.4,23-41.5,31.4
				c-3.4,1.9-5.1,6-3.6,9.6c1.8,4.3,6.8,6,10.8,3.8c16.5-9.1,31.7-20.6,45.1-34.1c5.1-5.1,10-10.5,14.5-16.2c0,0,0.1,0,0.1,0
				c-9.6,45.4-32.2,87.3-65.4,120.5c-45.5,45.5-106,70.6-170.4,70.6s-124.9-25.1-170.4-70.6C51,391.3,28,347.3,19.2,298.9
				c-8.6-47.3-3-95.4,16.1-139.3c1.7-3.9-0.1-8.3-3.9-10c-3.9-1.7-8.3,0.1-10,3.9C1,200.2-4.9,251.4,4.2,301.6
				c9.5,52.5,34.9,100.2,73.3,137.6c49,47.8,115.4,74,183.8,72.7c66.6-1.2,129-27.8,176.3-75c43.4-43.4,69.8-101,74.3-162.2
				C512.2,270.6,509.1,266.9,504.7,266.6z"/>
		</g>
	</g>
	<g>
		<g>
			<path d="M245.2,5.6c-1-3.4-4.3-5.6-7.8-5.4C176.2,4.7,118.6,31.1,75.2,74.6c-14.8,14.8-27.7,31.2-38.4,49
				c-2.2,3.6-1.2,8.4,2.3,10.6c3.6,2.3,8.4,1.1,10.6-2.5C59.8,114.9,72,99.3,85.9,85.3C119.1,52.2,161,29.6,206.4,20
				c0,0,0.1,0,0,0.1c-5.6,4.5-11,9.4-16.2,14.5c-34.1,34.1-55,79.3-58.8,127.3c-3.8,47.4,9.2,94.9,36.5,133.5
				c1.5,2.1,3.8,3.2,6.2,3.2c1.7,0,3.4-0.6,4.9-1.8c3.1-2.5,3.5-7.1,1.2-10.4c-25.2-35.7-37.2-79.5-33.6-123.3
				c3.6-44.4,22.9-86.2,54.4-117.7c12.1-12.1,25.8-22.5,40.6-30.9C244.8,12.7,246.2,9,245.2,5.6z"/>
		</g>
	</g>
</g>
<g>
	<polygon class="st0" points="384.2,31 353.7,93.7 295.7,119.9 359,149 384.7,210.8 409.7,151 474.3,119.9 415.1,89 	"/>
	<g>
		<path d="M467.8,102.5L445,97.9c-19.6-4-34.8-19.2-38.8-38.8l-4.6-22.9c-1.7-8.4-8.8-14.2-17.4-14.2s-15.7,5.8-17.4,14.2l-4.6,22.9
			c-4,19.6-19.2,34.8-38.8,38.8l-22.9,4.6c-8.4,1.7-14.2,8.8-14.2,17.4s5.8,15.7,14.2,17.4l22.9,4.6c19.6,4,34.8,19.2,38.8,38.8
			l4.6,22.9c1.7,8.4,8.8,14.2,17.4,14.2s15.7-5.8,17.4-14.2l4.6-22.9c4-19.6,19.2-34.8,38.8-38.8l22.9-4.6
			c8.4-1.7,14.2-8.8,14.2-17.4C482,111.3,476.2,104.2,467.8,102.5z M464.8,122.3l-22.9,4.6c-25.6,5.2-45.5,25.1-50.7,50.7l-4.6,22.9
			c-0.3,1.3-1.1,2-2.4,2c-1.4,0-2.2-0.7-2.4-2l-4.6-22.9c-5.2-25.6-25.1-45.5-50.7-50.7l-22.9-4.6c-1.3-0.3-2-1.1-2-2.4
			s0.7-2.2,2-2.4l22.9-4.6c25.6-5.2,45.5-25.1,50.7-50.7l4.6-22.9c0.3-1.3,1.1-2,2.4-2c1.4,0,2.2,0.7,2.4,2l4.6,22.9
			c5.2,25.6,25.1,45.5,50.7,50.7l22.9,4.6c1.3,0.3,2,1.1,2,2.4S466.1,122,464.8,122.3z"/>
	</g>
</g>
<g>
	<polygon class="st0" points="238,264.7 217.1,307.1 173.9,327.4 214.1,345.6 240.9,390.3 257.9,349.5 301.7,328.7 260.6,308.2 	"/>
	<g>
		<path d="M297.5,313.6l-16.1-3.3c-13.4-2.7-23.9-13.2-26.6-26.6l-3.3-16.1c-1.3-6.4-6.7-10.8-13.2-10.8c-6.5,0-11.9,4.4-13.2,10.8
			l-3.3,16.1c-2.7,13.4-13.2,23.9-26.6,26.6l-16.1,3.3c-6.4,1.3-10.8,6.7-10.8,13.2c0,6.5,4.4,11.9,10.8,13.2l16.1,3.3
			c13.4,2.7,23.9,13.2,26.6,26.6l3.3,16.1c1.3,6.4,6.7,10.8,13.2,10.8c6.5,0,11.9-4.4,13.2-10.8l3.3-16.1
			c2.7-13.4,13.2-23.9,26.6-26.6l16.1-3.3c6.4-1.3,10.8-6.7,10.8-13.2C308.3,320.3,303.9,314.8,297.5,313.6z M295,327.5l-16.1,3.3
			c-18.4,3.7-32.8,18.1-36.5,36.5l-3.3,16.1c-0.1,0.3-0.1,0.6-0.8,0.6c-0.7,0-0.7-0.3-0.8-0.6l-3.3-16.1
			c-3.7-18.4-18.1-32.8-36.5-36.5l-16.1-3.3c-0.3-0.1-0.6-0.1-0.6-0.8c0-0.7,0.3-0.7,0.6-0.8l16.1-3.3c18.4-3.7,32.8-18.1,36.5-36.5
			l3.3-16.1c0.1-0.3,0.1-0.6,0.8-0.6c0.7,0,0.7,0.3,0.8,0.6l3.3,16.1c3.7,18.4,18.1,32.8,36.5,36.5L295,326c0.3,0.1,0.6,0.1,0.6,0.8
			C295.7,327.4,295.3,327.5,295,327.5z"/>
	</g>
</g>
</svg>
