<?xml version="1.0" encoding="utf-8"?>
<!-- Generator: Adobe Illustrator 22.1.0, SVG Export Plug-In . SVG Version: 6.00 Build 0)  -->
<svg version="1.1" id="Capa_1" xmlns="http://www.w3.org/2000/svg" xmlns:xlink="http://www.w3.org/1999/xlink" x="0px" y="0px"
	 viewBox="0 0 106 100" style="enable-background:new 0 0 106 100;" xml:space="preserve">
<style type="text/css">
	.st0{clip-path:url(#SVGID_2_);}
	.st1{clip-path:url(#SVGID_4_);fill:#EEEEEE;}
	.st2{clip-path:url(#SVGID_6_);}
	.st3{clip-path:url(#SVGID_8_);fill:#C3D8F1;}
	.st4{clip-path:url(#SVGID_10_);}
	.st5{clip-path:url(#SVGID_12_);fill:#C3D8F1;}
	.st6{clip-path:url(#SVGID_14_);}
	.st7{clip-path:url(#SVGID_16_);fill:#C3D8F1;}
	.st8{clip-path:url(#SVGID_18_);}
	.st9{clip-path:url(#SVGID_20_);fill:#C3D8F1;}
	.st10{clip-path:url(#SVGID_22_);}
	.st11{clip-path:url(#SVGID_24_);fill:#EEEEEE;}
	.st12{clip-path:url(#SVGID_26_);}
	.st13{clip-path:url(#SVGID_28_);fill:#FF283D;}
	.st14{clip-path:url(#SVGID_30_);}
	.st15{clip-path:url(#SVGID_32_);fill:#333333;}
</style>
<g>
	<defs>
		<ellipse id="SVGID_1_" cx="39.8" cy="45.2" rx="39.8" ry="4"/>
	</defs>
	<clipPath id="SVGID_2_">
		<use xlink:href="#SVGID_1_"  style="overflow:visible;"/>
	</clipPath>
	<g class="st0">
		<defs>
			<rect id="SVGID_3_" x="-135" y="-127" width="375" height="667"/>
		</defs>
		<clipPath id="SVGID_4_">
			<use xlink:href="#SVGID_3_"  style="overflow:visible;"/>
		</clipPath>
		<rect x="-5" y="36.2" class="st1" width="89.5" height="17.9"/>
	</g>
</g>
<g>
	<defs>
		<polygon id="SVGID_5_" points="45.2,28.2 54,13 57.6,16.2 46.5,29 		"/>
	</defs>
	<clipPath id="SVGID_6_">
		<use xlink:href="#SVGID_5_"  style="overflow:visible;"/>
	</clipPath>
	<g class="st2">
		<defs>
			<rect id="SVGID_7_" x="-135" y="-127" width="375" height="667"/>
		</defs>
		<clipPath id="SVGID_8_">
			<use xlink:href="#SVGID_7_"  style="overflow:visible;"/>
		</clipPath>
		<rect x="37.9" y="14.5" transform="matrix(0.5 -0.866 0.866 0.5 6.9395 55.645)" class="st3" width="27.5" height="14.7"/>
	</g>
</g>
<g>
	<defs>
		<polygon id="SVGID_9_" points="30.2,31.8 18.4,25 20.5,21.5 30.9,30.6 		"/>
	</defs>
	<clipPath id="SVGID_10_">
		<use xlink:href="#SVGID_9_"  style="overflow:visible;"/>
	</clipPath>
	<g class="st4">
		<defs>
			<rect id="SVGID_11_" x="-135" y="-127" width="375" height="667"/>
		</defs>
		<clipPath id="SVGID_12_">
			<use xlink:href="#SVGID_11_"  style="overflow:visible;"/>
		</clipPath>
		<rect x="18.3" y="14.9" transform="matrix(0.5 -0.866 0.866 0.5 -10.3979 35.2807)" class="st5" width="14.1" height="23.6"/>
	</g>
</g>
<g>
	<defs>
		<polygon id="SVGID_13_" points="39.6,25.9 39.6,10.9 43.4,11.5 41,25.9 		"/>
	</defs>
	<clipPath id="SVGID_14_">
		<use xlink:href="#SVGID_13_"  style="overflow:visible;"/>
	</clipPath>
	<g class="st6">
		<defs>
			<rect id="SVGID_15_" x="-135" y="-127" width="375" height="667"/>
		</defs>
		<clipPath id="SVGID_16_">
			<use xlink:href="#SVGID_15_"  style="overflow:visible;"/>
		</clipPath>
		<rect x="34.6" y="5.9" class="st7" width="13.9" height="25"/>
	</g>
</g>
<g>
	<defs>
		<polygon id="SVGID_17_" points="33.7,27 26.7,12.5 31.1,11.3 35,26.4 		"/>
	</defs>
	<clipPath id="SVGID_18_">
		<use xlink:href="#SVGID_17_"  style="overflow:visible;"/>
	</clipPath>
	<g class="st8">
		<defs>
			<rect id="SVGID_19_" x="-135" y="-127" width="375" height="667"/>
		</defs>
		<clipPath id="SVGID_20_">
			<use xlink:href="#SVGID_19_"  style="overflow:visible;"/>
		</clipPath>
		<rect x="25" y="5.7" transform="matrix(0.8988 -0.4384 0.4384 0.8988 -4.9529 16.0321)" class="st9" width="14.6" height="26.1"/>
	</g>
</g>
<g>
	<defs>
		<path id="SVGID_21_" d="M40.5,50.6c9.3,0,17.9-0.3,25.4-0.8c3-0.2,5.5-9.6,5.5-9.6C62.9,39.4,52.1,39,40.5,39
			c-12.1,0-23.2,0.5-31.9,1.3c2.3,1.7,3.6,6.4,3.6,9.3C20.2,50.2,30,50.6,40.5,50.6z"/>
	</defs>
	<clipPath id="SVGID_22_">
		<use xlink:href="#SVGID_21_"  style="overflow:visible;"/>
	</clipPath>
	<g class="st10">
		<defs>
			<rect id="SVGID_23_" x="-135" y="-127" width="375" height="667"/>
		</defs>
		<clipPath id="SVGID_24_">
			<use xlink:href="#SVGID_23_"  style="overflow:visible;"/>
		</clipPath>
		<rect x="3.6" y="34" class="st11" width="72.9" height="21.6"/>
	</g>
</g>
<g>
	<defs>
		<path id="SVGID_25_" d="M70.4,71.5l6.9-7.1l27.8,23.8c0.9,3.2-0.1,6.2-3,9c-2.9,2.8-5.6,3.5-8.3,2.1L70.4,71.5z"/>
	</defs>
	<clipPath id="SVGID_26_">
		<use xlink:href="#SVGID_25_"  style="overflow:visible;"/>
	</clipPath>
	<g class="st12">
		<defs>
			<rect id="SVGID_27_" x="-135" y="-127" width="375" height="667"/>
		</defs>
		<clipPath id="SVGID_28_">
			<use xlink:href="#SVGID_27_"  style="overflow:visible;"/>
		</clipPath>
		<rect x="65.4" y="59.4" class="st13" width="45" height="45.6"/>
	</g>
</g>
<g>
	<defs>
		<path id="SVGID_29_" d="M39.9,61.6c15.2,0,27.5-12.3,27.5-27.6S55.1,6.5,39.9,6.5S12.4,18.8,12.4,34S24.7,61.6,39.9,61.6z
			 M66,54.4l8.7,8.6l-5.6,5.7l-8.7-8.5l0.7-0.7c-5.8,4.8-13.2,7.7-21.3,7.7c-18.3,0-33.2-14.9-33.2-33.3S21.5,0.7,39.8,0.7
			S73,15.6,73,33.9C73,41.7,70.4,48.8,66,54.4z"/>
	</defs>
	<clipPath id="SVGID_30_">
		<use xlink:href="#SVGID_29_"  style="overflow:visible;"/>
	</clipPath>
	<g class="st14">
		<defs>
			<rect id="SVGID_31_" x="-135" y="-127" width="375" height="667"/>
		</defs>
		<clipPath id="SVGID_32_">
			<use xlink:href="#SVGID_31_"  style="overflow:visible;"/>
		</clipPath>
		<rect x="1.6" y="-4.3" class="st15" width="78.1" height="78.1"/>
	</g>
</g>
</svg>
