<svg xmlns="http://www.w3.org/2000/svg" xmlns:xlink="http://www.w3.org/1999/xlink" width="60" height="30" viewBox="0 0 60 30">
    <defs>
        <path id="y93dkj8s8a" d="M0.009 0.209L3.55 0.209 3.55 3.751 0.009 3.751z"/>
    </defs>
    <g fill="none" fill-rule="evenodd">
        <g>
            <g>
                <path fill="#1D1D1B" fill-rule="nonzero" d="M40.106 23.878L40.106 22.608 46 22.608 46 21 38 21 38 29 46 29 46 27.391 40.106 27.391 40.106 25.444 45.116 25.487 45.116 23.878z" transform="translate(-30 -395) translate(30 395)"/>
                <path fill="#1D1D1B" fill-rule="nonzero" d="M54 29L50.728 24.735 53.699 21 51.364 21 49.581 23.241 47.862 21 45.527 21 48.32 24.827 45 29 47.335 29 49.436 26.358 51.364 29zM18 21L18 29 26 29 26 27.425 20.159 27.425 20.159 21zM0 21L0 22.608 3 22.608 3 29 5 29 5 22.608 8 22.608 8 21zM26 21L26 29 27.901 29 27.901 22.608 30.259 29 31.627 29 34.061 22.608 34.061 29 36 29 36 21 32.616 21 30.943 25.614 29.346 21zM11.116 23.878L11.116 22.608 17 22.608 17 21 9 21 9 29 17 29 17 27.391 11.116 27.391 11.116 25.444 16.111 25.487 16.111 23.878z" transform="translate(-30 -395) translate(30 395)"/>
                <path fill="#0184C0" fill-rule="nonzero" d="M12 0v5.38h5.181l.626-1.202h7.004v6.297h6.434V4.178h6.89l.684 1.203H44V0H12zm6.377 5.438L12 17h5.181l3.36-5.323L28 17l7.516-5.266L38.819 17H44L37.565 5.438h-5.124v6.296h-8.826V5.38l-5.238.057z" transform="translate(-30 -395) translate(30 395)"/>
                <g>
                    <g transform="translate(-30 -395) translate(30 395) translate(56 26)">
                        <mask id="lou25rwgxb" fill="#fff">
                            <use xlink:href="#y93dkj8s8a"/>
                        </mask>
                        <path fill="#1D1D1B" fill-rule="nonzero" d="M2.113 1.305c-.087-.049-.226-.073-.417-.073h-.294v.703h.31c.147 0 .256-.014.329-.043.134-.053.202-.154.202-.303 0-.142-.044-.237-.13-.284zM1.742.998c.241 0 .418.023.531.07.202.083.302.247.302.492 0 .173-.063.301-.19.383-.067.044-.16.075-.28.094.152.025.264.088.335.19.07.104.106.204.106.302v.142c0 .045.001.094.004.145.003.051.009.085.017.1l.011.025h-.319l-.005-.02-.004-.02-.007-.063v-.154c0-.225-.062-.373-.185-.446-.073-.041-.2-.062-.384-.062h-.272v.765H1.06V.998h.682zM.699.898c-.296.297-.444.657-.444 1.078 0 .425.147.787.442 1.086.296.299.655.449 1.078.449.423 0 .783-.15 1.078-.449.296-.3.444-.66.444-1.086 0-.421-.148-.78-.444-1.078-.297-.3-.657-.449-1.078-.449-.42 0-.778.15-1.076.449zM3.031 3.23c-.346.347-.765.52-1.256.52-.49 0-.908-.173-1.252-.52C.18 2.884.009 2.466.009 1.974c0-.487.173-.904.519-1.25C.872.382 1.288.21 1.775.21c.491 0 .91.172 1.256.516.346.344.519.76.519 1.249 0 .49-.173.91-.52 1.256z" mask="url(#lou25rwgxb)"/>
                    </g>
                </g>
            </g>
        </g>
    </g>
</svg>
