<svg enable-background="new 0 0 77 131" viewBox="0 0 77 131" xmlns="http://www.w3.org/2000/svg" xmlns:xlink="http://www.w3.org/1999/xlink"><clipPath id="a"><path d="m68.7 119.7h-60.3c-1.5 0-2.7-1.2-2.7-2.7v-22.8c0-7 3.1-13.7 8.4-18.4l9.7-8.4c1.1-1 1.3-2.7.3-3.8-.1-.1-.2-.2-.3-.3l-9.7-8.4c-5.4-4.6-8.4-11.3-8.4-18.4v-22.7c0-1.5 1.2-2.7 2.7-2.7h60.3c1.5 0 2.7 1.2 2.7 2.7v22.7c0 7-3.1 13.7-8.4 18.4l-9.7 8.4c-1.1 1-1.3 2.7-.3 3.8l.3.3 9.7 8.4c5.4 4.6 8.4 11.3 8.4 18.4v22.8c0 1.5-1.2 2.7-2.7 2.7z"/></clipPath><clipPath id="b"><path d="m-149-154h375v688h-375z"/></clipPath><clipPath id="c"><path d="m68.7.3h-60.3c-4.5 0-8.2-1.3-8.2 8.1s3.7 8.1 8.2 8.1h60.3c4.5 0 8.2 0 8.2-8.1 0-8.1-3.7-8.1-8.2-8.1z"/></clipPath><clipPath id="d"><path d="m-149-154h375v688h-375z"/></clipPath><clipPath id="e"><path d="m11 115h55v-20.1c0-5.5-2.4-10.7-6.6-14.3l-9.8-8.4c-3.4-3-3.8-8.1-.8-11.5.2-.3.5-.5.8-.8l9.8-8.4c4.2-3.6 6.6-8.8 6.6-14.3v-20.2h-55v20.1c0 5.5 2.4 10.7 6.6 14.3l9.8 8.4c3.4 3 3.8 8.1.8 11.5-.2.3-.5.5-.8.8l-9.8 8.5c-4.2 3.6-6.6 8.8-6.6 14.3z"/></clipPath><clipPath id="f"><path d="m-149-154h375v688h-375z"/></clipPath><clipPath id="g"><path d="m45.8 54.8c-.4-1.1-1.4-1.8-2.6-1.8h-8.4c-1.5 0-2.8 1.3-2.8 2.8 0 .8.3 1.5.8 2l4.2 4.3c1.1 1.1 2.8 1.1 3.9 0l4.2-4.3c.9-.7 1.1-2 .7-3z"/></clipPath><clipPath id="h"><path d="m-149-154h375v688h-375z"/></clipPath><clipPath id="i"><path d="m68.7 115h-60.5c-4.6 0-8.2 0-8.2 8s3.7 8 8.2 8h60.5c4.6 0 8.2.9 8.2-8s-3.6-8-8.2-8z"/></clipPath><clipPath id="j"><path d="m-149-154h375v688h-375z"/></clipPath><clipPath id="k"><path d="m40.3 85.7c-1.1-1-2.8-.9-3.8.1l-25.5 25.3v3.9h55v-6.2z"/></clipPath><clipPath id="l"><path d="m-149-154h375v688h-375z"/></clipPath><g clip-path="url(#a)"><path clip-path="url(#b)" d="m.7 6.1h75.8v118.6h-75.8z" fill="#333"/></g><g clip-path="url(#c)"><path clip-path="url(#d)" d="m-4.8-4.8h86.7v26.4h-86.7z" fill="#ff283d"/></g><g clip-path="url(#e)"><path clip-path="url(#f)" d="m6 12h65v108h-65z" fill="#eceff1"/></g><g clip-path="url(#g)"><path clip-path="url(#h)" d="m27 48h24v20h-24z" fill="#ffc107"/></g><g clip-path="url(#i)"><path clip-path="url(#j)" d="m-5 110h87v26h-87z" fill="#ff283d"/></g><g clip-path="url(#k)"><path clip-path="url(#l)" d="m6 80h65v40h-65z" fill="#ffc107"/></g></svg>